<svg xmlns="http://www.w3.org/2000/svg" viewBox="0 0 251 198.87"><defs><style>.cls-1{fill:#efefef;}</style></defs><g id="Layer_2" data-name="Layer 2"><g id="Layer_1-2" data-name="Layer 1"><rect class="cls-1" x="246" y="154.27" width="0.9" height="43.4"/><rect class="cls-1" x="240.6" y="154.27" width="0.9" height="43.4"/><rect class="cls-1" x="198.8" y="159.27" width="42" height="0.9"/><path class="cls-1" d="M245.8,154.67a5.2,5.2,0,0,1-5.4-5.1v-8.7a1.05,1.05,0,0,1,1.1-1h8.7a1.05,1.05,0,0,1,1.1,1v8.7A5.44,5.44,0,0,1,245.8,154.67Zm-4.6-5.1a4.37,4.37,0,0,0,4.6,4.2,4.42,4.42,0,0,0,4.6-4.2v-8.9h-9.2Z" transform="translate(-0.3 -0.3)"/><polygon class="cls-1" points="155.1 198.87 155.1 101.77 155.9 101.77 155.9 198.07 203.7 198.07 203.7 198.87 155.1 198.87"/><path class="cls-1" d="M163.1,195a1.38,1.38,0,0,1-1.4-1.4v-11.5a1.38,1.38,0,0,1,1.4-1.4h28.5a1.38,1.38,0,0,1,1.4,1.4v11.5a1.46,1.46,0,0,1-1.4,1.4Zm.9-2.4h26.6V183H164Z" transform="translate(-0.3 -0.3)"/><path class="cls-1" d="M163.1,114.47a1.38,1.38,0,0,1-1.4-1.4v-10.5a1.38,1.38,0,0,1,1.4-1.4h28.5a1.38,1.38,0,0,1,1.4,1.4v10.5a1.46,1.46,0,0,1-1.4,1.4Zm.9-2.4h26.6v-8.6H164Z" transform="translate(-0.3 -0.3)"/><rect class="cls-1" x="191.8" y="184.67" width="6.4" height="0.9"/><rect class="cls-1" x="191.8" y="189.57" width="6.4" height="0.9"/><rect class="cls-1" x="191.8" y="193.27" width="12.4" height="1.4"/><rect class="cls-1" x="155.8" y="184.67" width="6.4" height="0.9"/><rect class="cls-1" x="155.8" y="189.57" width="6.4" height="0.9"/><rect class="cls-1" x="155.8" y="193.27" width="12.4" height="1.4"/><rect class="cls-1" x="161.3" y="113.27" width="1.4" height="67.4"/><rect class="cls-1" x="191.3" y="113.27" width="1.4" height="67.4"/><path class="cls-1" d="M204.3,198.77v-5h-6v-84h-6.2v-.9h7.2v45h52l-.1,44.9Zm.9-.9h45.1v-43.1H199.2v38.1h6Z" transform="translate(-0.3 -0.3)"/><rect class="cls-1" x="4" y="154.27" width="0.9" height="43.4"/><rect class="cls-1" x="9.5" y="154.27" width="0.9" height="43.4"/><rect class="cls-1" x="10.2" y="162.27" width="42" height="0.9"/><path class="cls-1" d="M5.8,154.67a5.2,5.2,0,0,1-5.4-5.1v-8.7a1.05,1.05,0,0,1,1.1-1h8.7a1.05,1.05,0,0,1,1.1,1v8.7A5.44,5.44,0,0,1,5.8,154.67Zm-4.6-5.1a4.37,4.37,0,0,0,4.6,4.2,4.42,4.42,0,0,0,4.6-4.2v-8.9H1.2Z" transform="translate(-0.3 -0.3)"/><polygon class="cls-1" points="47.3 198.87 47.3 198.07 95.1 198.07 95.1 101.77 95.9 101.77 95.9 198.87 47.3 198.87"/><path class="cls-1" d="M60.1,195a1.38,1.38,0,0,1-1.4-1.4v-11.5a1.38,1.38,0,0,1,1.4-1.4H88.6a1.38,1.38,0,0,1,1.4,1.4v11.5a1.46,1.46,0,0,1-1.4,1.4Zm.9-2.4H87.6V183H61Z" transform="translate(-0.3 -0.3)"/><path class="cls-1" d="M60.1,114.47a1.38,1.38,0,0,1-1.4-1.4v-10.5a1.38,1.38,0,0,1,1.4-1.4H88.6a1.38,1.38,0,0,1,1.4,1.4v10.5a1.46,1.46,0,0,1-1.4,1.4Zm.9-2.4H87.6v-8.6H61Z" transform="translate(-0.3 -0.3)"/><rect class="cls-1" x="52.8" y="184.67" width="6.4" height="0.9"/><rect class="cls-1" x="52.8" y="189.57" width="6.4" height="0.9"/><rect class="cls-1" x="46.8" y="193.27" width="12.4" height="1.4"/><rect class="cls-1" x="88.8" y="184.67" width="6.4" height="0.9"/><rect class="cls-1" x="88.8" y="189.57" width="6.4" height="0.9"/><rect class="cls-1" x="82.8" y="193.27" width="12.4" height="1.4"/><rect class="cls-1" x="88.3" y="113.27" width="1.4" height="67.4"/><rect class="cls-1" x="58.3" y="113.27" width="1.4" height="67.4"/><path class="cls-1" d="M.3,198.77v-44.9h52v-45h7.2v.9H53.3v84h-6l-.1,5Zm.9-.9H46.3v-5h6v-38.1H1.2Z" transform="translate(-0.3 -0.3)"/><rect class="cls-1" x="95.8" y="111.27" width="59.4" height="4.4"/><path class="cls-1" d="M95.7,116.37v-5.2h60.2v5.2Zm.2-.2h59.8v-4.8H95.9Z" transform="translate(-0.3 -0.3)"/><path class="cls-1" d="M53.1,103v-3.2a.18.18,0,0,1,.2-.2H199.8a.7.7,0,0,1,.7.7V103Z" transform="translate(-0.3 -0.3)"/><path class="cls-1" d="M52.3,109v-8.8a.59.59,0,0,1,.6-.6h2.8V109Z" transform="translate(-0.3 -0.3)"/><path class="cls-1" d="M95.5,199.17v-14h1.1a.85.85,0,0,1,.9.9v12.2a1,1,0,0,1-.9.9Z" transform="translate(-0.3 -0.3)"/><path class="cls-1" d="M155,199.17a.8.8,0,0,1-.8-.7V186a.81.81,0,0,1,.8-.8h.7v14Z" transform="translate(-0.3 -0.3)"/><path class="cls-1" d="M191.2,109.67v-7.8h7.7a2,2,0,0,1,2,2v3.7a2,2,0,0,1-2,2.1Zm1.2-1.3h6.5a.73.73,0,0,0,.7-.7V104a.72.72,0,0,0-.7-.7h-6.5Z" transform="translate(-0.3 -0.3)"/><path class="cls-1" d="M200.6,102.67v-1.9h9.2v1.5a.38.38,0,0,1-.4.4Z" transform="translate(-0.3 -0.3)"/><rect class="cls-1" x="207.6" y="97.37" width="1.9" height="2.6"/><path class="cls-1" d="M43.7,102.67a.38.38,0,0,1-.4-.4v-1.5h9.2v1.9Z" transform="translate(-0.3 -0.3)"/><rect class="cls-1" x="42.9" y="97.27" width="1.9" height="2.6"/><path class="cls-1" d="M200.85,96.07c-7.82-2.79-19.59-18.13-19.71-18.28l-.09-.12H70.42l-.08.15c-6.86,12.39-21.25,17.9-22.19,18.25H40.54C50,92.86,66,85.92,70.6,74.57H182.71c.86,1.78,8.41,16.26,28.85,21.5Z" transform="translate(-0.3 -0.3)"/><path class="cls-1" d="M200.67,97.07l-.14-.07c-8.09-2.77-19.41-17.58-19.89-18.21l-.09-.12H71l-.09.15C63.43,91.81,48.56,96.94,48.42,97l-.19.09H39.9a.87.87,0,0,1-.9-.75.82.82,0,0,1,.6-1c5.83-1.91,25.25-9.09,30.08-21.27l.14-.41H183.21l.22.43c.8,1.67,8.3,16.25,29,21.26a.78.78,0,0,1,.53.34.81.81,0,0,1,.14.62.74.74,0,0,1-.8.75ZM181.46,77.55c0,.09,11.49,15.21,19.44,18.1l0,0h5.75l.1-.59c-16.66-5.89-23.19-17.56-24.33-19.85l-.08-.16H70.78l-.06.2A8.21,8.21,0,0,1,70,76.81l-.28.45H181.25ZM67.27,80.68C61,88.17,50.33,92.92,44.5,95.09l.1.58h3.46l.26-.11c8.16-3.43,15-8.58,19.42-14.51Z" transform="translate(-0.3 -0.3)"/><path class="cls-1" d="M44.16,97.07,48,95.73l0,0s0,0,0,0l.15-.06c4.62-1.91,16-7.47,21.8-17.93l.21-.34H181.25l.21.28c0,.09,11.64,15.43,19.54,18.2l3.79,1.22ZM70.94,78.82c-5.13,8.82-13.59,14-18.17,16.28l.13.57H197.69l-.82-.55c-4.38-2.92-9.77-8.32-16-16.06l-.32-.39H71Z" transform="translate(-0.3 -0.3)"/><rect class="cls-1" x="58.5" y="89.07" width="2.7" height="6.2"/><rect class="cls-1" x="64.5" y="82.27" width="3.1" height="13"/><rect class="cls-1" x="83.3" y="78.17" width="2.8" height="17.6"/><rect class="cls-1" x="70.9" y="78.17" width="2.8" height="17.6"/><rect class="cls-1" x="77.1" y="78.17" width="2.8" height="17.6"/><rect class="cls-1" x="102" y="78.17" width="2.8" height="17.6"/><rect class="cls-1" x="89.5" y="78.17" width="2.8" height="17.6"/><rect class="cls-1" x="95.7" y="78.17" width="2.8" height="17.6"/><rect class="cls-1" x="120.6" y="78.17" width="2.8" height="17.6"/><rect class="cls-1" x="108.2" y="78.17" width="2.8" height="17.6"/><rect class="cls-1" x="114.4" y="78.17" width="2.8" height="17.6"/><rect class="cls-1" x="139.2" y="78.17" width="2.8" height="17.6"/><rect class="cls-1" x="126.8" y="78.17" width="2.8" height="17.6"/><rect class="cls-1" x="133" y="78.17" width="2.8" height="17.6"/><rect class="cls-1" x="157.9" y="78.17" width="2.8" height="17.6"/><rect class="cls-1" x="145.5" y="78.17" width="2.8" height="17.6"/><rect class="cls-1" x="151.7" y="78.17" width="2.8" height="17.6"/><rect class="cls-1" x="176.5" y="78.17" width="2.8" height="17.6"/><rect class="cls-1" x="164.1" y="78.17" width="2.8" height="17.6"/><rect class="cls-1" x="170.3" y="78.17" width="2.8" height="17.6"/><rect class="cls-1" x="182.5" y="81.67" width="3.4" height="14.1"/><rect class="cls-1" x="188.7" y="88.57" width="3.3" height="7.2"/><path class="cls-1" d="M70.1,68v-3.6a.59.59,0,0,1,.6-.6H182.4a.59.59,0,0,1,.6.6l.09,3.6Z" transform="translate(-0.3 -0.3)"/><path class="cls-1" d="M183.5,68.37H69.7v-4a1.11,1.11,0,0,1,1.1-1.1H182.5a1.11,1.11,0,0,1,1.1,1.1l-.1,4Zm-113.6-.2H183.2v-3.8a.86.86,0,0,0-.8-.8H70.8a.86.86,0,0,0-.8.8v3.8Z" transform="translate(-0.3 -0.3)"/><rect class="cls-1" x="69.7" y="66.87" width="4.4" height="5.9"/><path class="cls-1" d="M74.7,73.47h-5v-6.6h5.1v6.6Zm-5-.1h4.9v-6.5H69.7Z" transform="translate(-0.3 -0.3)"/><rect class="cls-1" x="178.5" y="66.87" width="4.4" height="5.9"/><path class="cls-1" d="M183.5,73.47h-5.1v-6.6h5.1Zm-5-.1h4.9v-6.5h-4.9Z" transform="translate(-0.3 -0.3)"/><rect class="cls-1" x="105.3" y="66.87" width="3.3" height="6.9"/><path class="cls-1" d="M109.3,74.37h-4v-7.5h4Zm-4,0h3.9V67h-3.9Z" transform="translate(-0.3 -0.3)"/><rect class="cls-1" x="144.2" y="66.87" width="3.3" height="6.9"/><path class="cls-1" d="M148.2,74.37h-4v-7.5h4Zm-4,0h3.9V67h-3.9Z" transform="translate(-0.3 -0.3)"/><rect class="cls-1" x="79.3" y="34.57" width="1.1" height="39.1"/><path class="cls-1" d="M81.1,74.37H79.3V34.57h1.8Zm-1.8-.1h1.6V34.57H79.3Z" transform="translate(-0.3 -0.3)"/><rect class="cls-1" x="87.8" y="34.57" width="1.1" height="39.1"/><path class="cls-1" d="M89.5,74.37H87.7V34.57h1.8Zm-1.7-.1h1.6V34.57H87.8Z" transform="translate(-0.3 -0.3)"/><rect class="cls-1" x="161.5" y="34.57" width="1.1" height="39.1"/><path class="cls-1" d="M163.3,74.37h-1.8V34.57h1.8Zm-1.8-.1h1.6V34.57h-1.6Z" transform="translate(-0.3 -0.3)"/><rect class="cls-1" x="170" y="34.57" width="1.1" height="39.1"/><path class="cls-1" d="M171.8,74.37H170V34.57h1.8Zm-1.8-.1h1.6V34.57H170Z" transform="translate(-0.3 -0.3)"/><path class="cls-1" d="M79.3,36.07a1.38,1.38,0,0,1-1.4-1.4v-6.1a1.38,1.38,0,0,1,1.4-1.4h9.8a1.38,1.38,0,0,1,1.4,1.4v6.1a1.15,1.15,0,0,1-.3.92,1.48,1.48,0,0,1-1.1.48Zm.1-1.5h9.7v-6.1H79.4Z" transform="translate(-0.3 -0.3)"/><path class="cls-1" d="M161.7,36.07a1.38,1.38,0,0,1-1.4-1.4v-6.1a1.38,1.38,0,0,1,1.4-1.4h9.8a1.38,1.38,0,0,1,1.4,1.4v6.1a1.46,1.46,0,0,1-1.4,1.4Zm0-1.5h9.7v-6.1h-9.7Z" transform="translate(-0.3 -0.3)"/><path class="cls-1" d="M45.5,94.39c-1.89-.67-4.66-3.06-4.3-8.3a16.28,16.28,0,0,1,1.46-6.28,3.84,3.84,0,0,1,3.37-2h.25a2,2,0,0,1,1.65.93,2.88,2.88,0,0,1,0,2.76l-.25.66c-.21.54-.41,1-.56,1.57l-.3.82c-.32.85-.65,1.74-.8,2.28l-.11.38h.4a8,8,0,0,0,1.44-.2l.14,0a20.51,20.51,0,0,1,3.55-.44,4,4,0,0,1,2.39.61,2.36,2.36,0,0,1,.83,1.39l-1.39.14a.53.53,0,0,0-.34-.36,2.78,2.78,0,0,0-1.47-.3,19.86,19.86,0,0,0-2.78.3l-.61.09a11.06,11.06,0,0,1-2.16.3,1.28,1.28,0,0,1-1.06-.58c-.61-.88,0-2.48.94-4.92.18-.41.33-.84.48-1.29.1-.29.2-.59.32-.91a2.41,2.41,0,0,0,.22-1.27.46.46,0,0,0-.39-.44.64.64,0,0,1-.18-.06,1.43,1.43,0,0,0-.35,0,2.29,2.29,0,0,0-1.94,1.17c-.41.66-1.13,2.28-1.24,5.64-.25,4.61,2,6.25,3.24,6.78Z" transform="translate(-0.3 -0.3)"/><path class="cls-1" d="M206.06,93.28a6.13,6.13,0,0,0,2.36-1.56,7.1,7.1,0,0,0,1.78-5.47,15.62,15.62,0,0,0-1.23-5.6,2.29,2.29,0,0,0-1.95-1.2l-.26,0h0a.66.66,0,0,0-.63.38c-.2.35,0,1,.2,1.44l.25.64c.21.53.4,1,.54,1.52l.07.18c.92,2.39,1.47,3.83.87,4.78A1.4,1.4,0,0,1,207,89a9.84,9.84,0,0,1-1.56-.1c-.68-.05-1.49-.1-2.29-.1-1.61,0-2.64.22-3.15.67a1.26,1.26,0,0,0-.36.5l-1.39-.14a2.54,2.54,0,0,1,.84-1.5c1-.92,2.8-1,4-1,.66,0,1.31,0,1.91.07l.57,0a4,4,0,0,1,.54,0,4,4,0,0,0,.47,0H207l0-.35a15.4,15.4,0,0,0-1.13-3.18,14.4,14.4,0,0,1-.78-2.15A3.62,3.62,0,0,1,205,79a2.18,2.18,0,0,1,1.66-.93l.45,0a3.56,3.56,0,0,1,3.16,2,16,16,0,0,1,1.46,6.28,8,8,0,0,1-5.29,8.4Z" transform="translate(-0.3 -0.3)"/><rect class="cls-1" x="89.9" y="31.17" width="69.8" height="1.4"/><rect class="cls-1" x="77.7" y="24.87" width="95" height="4.6"/><path class="cls-1" d="M79,28.47v-2.2H62.8c.26-.95,1-1,2.28-1.07l.64,0c8.51-.52,15.17-3.48,19.81-8.81a6,6,0,0,1,4.37-2.09H124v3.1H89.9a2.56,2.56,0,0,0-1.93.91c-2.85,3.62-7.21,5.53-10.36,6.5l.09.59h46.4v3.1Z" transform="translate(-0.3 -0.3)"/><path class="cls-1" d="M126.8,28.57v-3.1h46.3l.09-.59a22.87,22.87,0,0,1-10.36-6.51,2.42,2.42,0,0,0-1.93-.9H122.2v-3.1h38.7a5.63,5.63,0,0,1,4.37,2.09c4.64,5.33,11.3,8.29,19.81,8.81l.67,0c1.38.05,2.05.12,2.26,1.13l-16.11-.06v2.2Z" transform="translate(-0.3 -0.3)"/><path class="cls-1" d="M172.88,29.07l-.06-.9h10v.7a.18.18,0,0,1-.2.2Z" transform="translate(-0.3 -0.3)"/><rect class="cls-1" x="180.9" y="26.07" width="1.6" height="2.2"/><path class="cls-1" d="M68.7,29.07a.18.18,0,0,1-.2-.2v-.7h9.9v.9Z" transform="translate(-0.3 -0.3)"/><rect class="cls-1" x="68.1" y="26.07" width="1.6" height="2.2"/><rect class="cls-1" x="88.7" y="16.37" width="2.8" height="9.2"/><rect class="cls-1" x="80.3" y="20.97" width="2.8" height="4.7"/><rect class="cls-1" x="97" y="16.37" width="2.8" height="9.2"/><rect class="cls-1" x="105.4" y="16.37" width="2.8" height="9.2"/><rect class="cls-1" x="113.8" y="16.37" width="2.8" height="9.2"/><rect class="cls-1" x="122.1" y="16.37" width="2.8" height="9.2"/><rect class="cls-1" x="130.5" y="16.37" width="2.8" height="9.2"/><rect class="cls-1" x="138.8" y="16.37" width="2.8" height="9.2"/><rect class="cls-1" x="147.2" y="16.37" width="2.8" height="9.2"/><rect class="cls-1" x="155.6" y="16.37" width="2.8" height="9.2"/><rect class="cls-1" x="163.9" y="18.77" width="2.8" height="6.8"/><path class="cls-1" d="M182,25.37v-2.8a.63.63,0,0,0-.6-.7l-2.29-.1H179a1.39,1.39,0,0,0-1.35,1.41v.93L173,22c1.7-.21,4.88-.68,6-1.27l4.13.19v4.41Z" transform="translate(-0.3 -0.3)"/><path class="cls-1" d="M181.5,21.47c-1.66,0-2.5-.78-2.5-2.3,0-1.8,1.1-3.2,2.5-3.2s2.5,1.37,2.5,3.2A2.21,2.21,0,0,1,181.5,21.47Zm0-4.4c-.73,0-1.4,1-1.4,2.1s.51,1.2,1.4,1.2,1.4-.2,1.4-1.2S182.23,17.07,181.5,17.07Z" transform="translate(-0.3 -0.3)"/><path class="cls-1" d="M68.4,25.37V21l4.13-.19c1.08.59,4.26,1.06,6,1.27L73.9,24.1v-.93a1.39,1.39,0,0,0-1.35-1.41h-.19l-2.27.1a.63.63,0,0,0-.59.7v2.8Z" transform="translate(-0.3 -0.3)"/><path class="cls-1" d="M70,21.47c-1.66,0-2.5-.78-2.5-2.3,0-1.8,1.1-3.2,2.5-3.2s2.5,1.37,2.5,3.2A2.21,2.21,0,0,1,70,21.47Zm0-4.4c-.73,0-1.4,1-1.4,2.1s.51,1.2,1.4,1.2,1.4-.2,1.4-1.2S70.73,17.07,70,17.07Z" transform="translate(-0.3 -0.3)"/><path class="cls-1" d="M157.19,16.08,88.47,17.17l-2.15-1.08.58-6.8a1.41,1.41,0,0,1,.58-1.08,1.81,1.81,0,0,1,1-.37l.21,0A239.06,239.06,0,0,0,127,11.27a113,113,0,0,0,23.91-2.21,10.52,10.52,0,0,1,1.74-.19h11.1a1.46,1.46,0,0,1,1.4,1.4l.1,8.19Zm6.61.49v-6.4H152.7a5.45,5.45,0,0,0-.68.05c-.22,0-.43,0-.62,0A115.23,115.23,0,0,1,127,12.54h0A242.54,242.54,0,0,1,88.75,9.17l-.33-.05L88,15.23l.93.54,68.44-1.1Z" transform="translate(-0.3 -0.3)"/><path class="cls-1" d="M132.58,11.67c-.22-1.9-2.59-2.9-6.88-2.9-6.06,0-6.72,1.85-6.79,2.8h-1.4c.14-2.39,2-3.74,5.82-4.1l.43,0L123.57,7a1.59,1.59,0,0,1-.17-.66,1.94,1.94,0,0,1,2.1-1.8,2,2,0,0,1,2.1,1.8,2,2,0,0,1-.08.7l-.12.36.37,0c3.92.36,6.06,1.81,6.22,4.2Z" transform="translate(-0.3 -0.3)"/><path class="cls-1" d="M161.8,9.5V8.07a.75.75,0,0,0-.7-.8h-4.3a.83.83,0,0,0-.8.8v.77l-1.4-.14c0-1.06.13-2.63.55-3a.19.19,0,0,1,.15-.08l.77,0c.39,0,.83,0,1.27,0,1.26,0,2.57-.11,2.66-.92A4.83,4.83,0,0,0,160,4c-.09-1.14-.2-2.69,1.89-3.2a3.69,3.69,0,0,1,.87-.12c1.14,0,1.3.79,1.39,1.82a3.69,3.69,0,0,0,.08.58c.11.44.08,3,.07,4.72,0,1.05,0,1.68,0,2.06Zm.9-7.13c-.77,0-1.4.9-1.4,2s.6,2,1.4,2,1.4-.86,1.4-2S163.47,2.37,162.7,2.37Z" transform="translate(-0.3 -0.3)"/><path class="cls-1" d="M86.85,9.66a58.46,58.46,0,0,1-.46-6.83,3.46,3.46,0,0,0,.07-.64C86.51,1.08,86.64.3,88,.3a4.62,4.62,0,0,1,.7.06c2.13.43,2.12,1.89,2.11,3.06a3.9,3.9,0,0,0,0,.81c.14.66,1.07.73,1.76.73s1.25-.06,1.83-.11.83-.08,1.1-.08.82,2,.89,4.15L95,9.2l.08-1.42a.82.82,0,0,0-.8-.71l-4.16-.7a.83.83,0,0,0-.74.74L89,8.37Zm1-7.29a1.15,1.15,0,0,0-.84.4A2.14,2.14,0,0,0,86.5,4.4c.12,1.08.75,1.87,1.5,1.87a1.17,1.17,0,0,0,.84-.41,2.14,2.14,0,0,0,.46-1.63A1.75,1.75,0,0,0,87.8,2.37Z" transform="translate(-0.3 -0.3)"/></g></g></svg>