<svg xmlns="http://www.w3.org/2000/svg" viewBox="0 0 167.4 387.3"><defs><style>.cls-1{fill:#efefef;}</style></defs><g id="Layer_2" data-name="Layer 2"><g id="Layer_1-2" data-name="Layer 1"><path class="cls-1" d="M1.6,376.1a1.28,1.28,0,0,1-1.3-1.3V357a1.28,1.28,0,0,1,1.3-1.3H166.4a1.28,1.28,0,0,1,1.3,1.3v17.8a1.28,1.28,0,0,1-1.3,1.3Zm.4-19a.29.29,0,0,0-.3.3v17a.29.29,0,0,0,.3.3H166a.29.29,0,0,0,.3-.3v-17a.29.29,0,0,0-.3-.3Z" transform="translate(-0.3 -0.3)"/><path class="cls-1" d="M14.2,359.6a3.41,3.41,0,0,1-3.4-3.4V309.5a3.41,3.41,0,0,1,3.4-3.4H153.9a3.4,3.4,0,0,1,3.4,3.4v46.7a3.44,3.44,0,0,1-3.4,3.4Zm0-51a1,1,0,0,0-.9.9v46.7a1,1,0,0,0,.9.9H153.9a1,1,0,0,0,.9-.9V309.5a1,1,0,0,0-.9-.9Z" transform="translate(-0.3 -0.3)"/><path class="cls-1" d="M21.4,295.9a3,3,0,0,1-3-3V251.7a3,3,0,0,1,3-3H147.6a3,3,0,0,1,3,3v41.2a3,3,0,0,1-3,3Zm0-45a.87.87,0,0,0-.9.9V293a.87.87,0,0,0,.9.9H147.6a.88.88,0,0,0,.9-.9V251.8a.87.87,0,0,0-.9-.9Z" transform="translate(-0.3 -0.3)"/><path class="cls-1" d="M29.3,245.9a2.81,2.81,0,0,1-2.8-2.8V201.7a2.81,2.81,0,0,1,2.8-2.8H139.7a2.81,2.81,0,0,1,2.8,2.8v41.4a2.81,2.81,0,0,1-2.8,2.8Zm0-45a.78.78,0,0,0-.8.8v41.4a.78.78,0,0,0,.8.8H139.7a.78.78,0,0,0,.8-.8V201.7a.78.78,0,0,0-.8-.8Z" transform="translate(-0.3 -0.3)"/><path class="cls-1" d="M63,359.6a1.06,1.06,0,0,1-1.1-1.1V312.9a1.06,1.06,0,0,1,1.1-1.1h6.1a1.06,1.06,0,0,1,1.1,1.1v45.6a1.13,1.13,0,0,1-1.1,1.1Zm.5-46.5a.29.29,0,0,0-.3.3v44.5a.29.29,0,0,0,.3.3h5a.29.29,0,0,0,.3-.3V313.4a.29.29,0,0,0-.3-.3Z" transform="translate(-0.3 -0.3)"/><path class="cls-1" d="M100,359.6a1.06,1.06,0,0,1-1.1-1.1V312.9a1.06,1.06,0,0,1,1.1-1.1h6.1a1.06,1.06,0,0,1,1.1,1.1v45.6a1.13,1.13,0,0,1-1.1,1.1Zm.5-46.5a.29.29,0,0,0-.3.3v44.5a.29.29,0,0,0,.3.3h5a.29.29,0,0,0,.3-.3V313.4a.29.29,0,0,0-.3-.3Z" transform="translate(-0.3 -0.3)"/><path class="cls-1" d="M65.4,294.8a.82.82,0,0,1-.8-.8V255.7a.82.82,0,0,1,.8-.8h3.8a.82.82,0,0,1,.8.8V294a.88.88,0,0,1-.8.8Zm.3-38.9a.29.29,0,0,0-.3.3v37.5a.29.29,0,0,0,.3.3h3a.29.29,0,0,0,.3-.3V256.2a.29.29,0,0,0-.3-.3Z" transform="translate(-0.3 -0.3)"/><path class="cls-1" d="M67.8,244a.91.91,0,0,1-.9-.9V204.7a.91.91,0,0,1,.9-.9h2.9a.91.91,0,0,1,.9.9v38.4a.91.91,0,0,1-.9.9Zm.6-39a.29.29,0,0,0-.3.3v37.2a.29.29,0,0,0,.3.3h1.7a.29.29,0,0,0,.3-.3V205.3a.29.29,0,0,0-.3-.3Z" transform="translate(-0.3 -0.3)"/><path class="cls-1" d="M69.7,191a.85.85,0,0,1-.9-.9V157.6a.85.85,0,0,1,.9-.9h3a.85.85,0,0,1,.9.9v32.5a.85.85,0,0,1-.9.9Zm.7-33a.29.29,0,0,0-.3.3v31.2a.29.29,0,0,0,.3.3h1.7a.29.29,0,0,0,.3-.3V158.3a.29.29,0,0,0-.3-.3Z" transform="translate(-0.3 -0.3)"/><path class="cls-1" d="M70.7,151a.85.85,0,0,1-.9-.9V117.6a.85.85,0,0,1,.9-.9h3a.85.85,0,0,1,.9.9v32.5a.85.85,0,0,1-.9.9Zm.7-33a.29.29,0,0,0-.3.3v31.2a.29.29,0,0,0,.3.3h1.7a.29.29,0,0,0,.3-.3V118.3a.29.29,0,0,0-.3-.3Z" transform="translate(-0.3 -0.3)"/><path class="cls-1" d="M71.7,111a.85.85,0,0,1-.9-.9V77.6a.85.85,0,0,1,.9-.9h3a.85.85,0,0,1,.9.9v32.5a.85.85,0,0,1-.9.9Zm.7-33a.29.29,0,0,0-.3.3v31.2a.29.29,0,0,0,.3.3h1.7a.29.29,0,0,0,.3-.3V78.3a.29.29,0,0,0-.3-.3Z" transform="translate(-0.3 -0.3)"/><path class="cls-1" d="M72.8,71.9a.82.82,0,0,1-.8-.8V45.6a.82.82,0,0,1,.8-.8h3a.82.82,0,0,1,.8.8V71.1a1,1,0,0,1-.8.8Zm.5-26a.29.29,0,0,0-.3.3V70.6a.29.29,0,0,0,.3.3h1.9a.29.29,0,0,0,.3-.3V46.2a.29.29,0,0,0-.3-.3Z" transform="translate(-0.3 -0.3)"/><path class="cls-1" d="M91.8,71.9a.82.82,0,0,1-.8-.8V45.6a.82.82,0,0,1,.8-.8h3a.82.82,0,0,1,.8.8V71.1a1,1,0,0,1-.8.8Zm.5-26a.29.29,0,0,0-.3.3V70.6a.29.29,0,0,0,.3.3h1.9a.29.29,0,0,0,.3-.3V46.2a.29.29,0,0,0-.3-.3Z" transform="translate(-0.3 -0.3)"/><path class="cls-1" d="M93.7,111a.85.85,0,0,1-.9-.9V77.6a.85.85,0,0,1,.9-.9h3a.85.85,0,0,1,.9.9v32.5a.85.85,0,0,1-.9.9Zm.7-33a.29.29,0,0,0-.3.3v31.2a.29.29,0,0,0,.3.3h1.7a.29.29,0,0,0,.3-.3V78.3a.29.29,0,0,0-.3-.3Z" transform="translate(-0.3 -0.3)"/><path class="cls-1" d="M94.7,151a.85.85,0,0,1-.9-.9V117.6a.85.85,0,0,1,.9-.9h3a.85.85,0,0,1,.9.9v32.5a.85.85,0,0,1-.9.9Zm.7-33a.29.29,0,0,0-.3.3v31.2a.29.29,0,0,0,.3.3h1.7a.29.29,0,0,0,.3-.3V118.3a.29.29,0,0,0-.3-.3Z" transform="translate(-0.3 -0.3)"/><path class="cls-1" d="M96.7,191a.85.85,0,0,1-.9-.9V157.6a.85.85,0,0,1,.9-.9h3a.85.85,0,0,1,.9.9v32.5a.85.85,0,0,1-.9.9Zm.7-33a.29.29,0,0,0-.3.3v31.2a.29.29,0,0,0,.3.3h1.7a.29.29,0,0,0,.3-.3V158.3a.29.29,0,0,0-.3-.3Z" transform="translate(-0.3 -0.3)"/><path class="cls-1" d="M97.8,244a.91.91,0,0,1-.9-.9V204.7a.91.91,0,0,1,.9-.9h2.9a.91.91,0,0,1,.9.9v38.4a.91.91,0,0,1-.9.9Zm.6-39a.29.29,0,0,0-.3.3v37.2a.29.29,0,0,0,.3.3h1.7a.29.29,0,0,0,.3-.3V205.3a.29.29,0,0,0-.3-.3Z" transform="translate(-0.3 -0.3)"/><path class="cls-1" d="M99.9,294.8a.82.82,0,0,1-.8-.8V255.7a.82.82,0,0,1,.8-.8h3.8a.82.82,0,0,1,.8.8V294a.88.88,0,0,1-.8.8Zm.3-38.9a.29.29,0,0,0-.3.3v37.5a.29.29,0,0,0,.3.3h3a.29.29,0,0,0,.3-.3V256.2a.29.29,0,0,0-.3-.3Z" transform="translate(-0.3 -0.3)"/><path class="cls-1" d="M73.7,358.6a1.49,1.49,0,0,1-1.5-1.5V332.7c0-5.85,4.69-17.1,11.1-17.1h1.2c6.41,0,11.1,11.25,11.1,17.1v24.4a1.33,1.33,0,0,1-.33,1,1.43,1.43,0,0,1-1.07.46Zm9.7-41.5c-5,0-9.7,9.79-9.7,15.7v24.1a.29.29,0,0,0,.3.3H94a.29.29,0,0,0,.3-.3V332.8c0-5.91-4.7-15.7-9.7-15.7Z" transform="translate(-0.3 -0.3)"/><path class="cls-1" d="M75.2,299.6a1.46,1.46,0,0,1-1.4-1.4V272.9c0-5.55,4.31-16.2,10.2-16.2s10.2,10.65,10.2,16.2v25.3a1.46,1.46,0,0,1-1.4,1.4ZM84,258.1c-4.45,0-8.8,9.36-8.8,14.8v25a.29.29,0,0,0,.3.3h17a.29.29,0,0,0,.3-.3v-25C92.8,267.46,88.45,258.1,84,258.1Z" transform="translate(-0.3 -0.3)"/><path class="cls-1" d="M76.6,241.9a1.13,1.13,0,0,1-1.1-1.1V218.6c0-4,3.29-11.8,7.8-11.8h1.5c4.51,0,7.8,7.76,7.8,11.8v22.2a1.2,1.2,0,0,1-1.1,1.1ZM83.2,208c-3.39,0-6.7,6.77-6.7,10.7v21.9a.29.29,0,0,0,.3.3H91.1a.29.29,0,0,0,.3-.3V218.7c0-3.93-3.31-10.7-6.7-10.7Z" transform="translate(-0.3 -0.3)"/><path class="cls-1" d="M76.5,190.9a1,1,0,0,1-1-1V170.3c0-4.23,3.41-9.4,7.4-9.4h2.4c4.18,0,7.2,5.5,7.2,9.2v19.8a1,1,0,0,1-1,1Zm6.5-29c-3.44,0-6.5,4.75-6.5,8.5v19.2a.29.29,0,0,0,.3.3H91.3a.29.29,0,0,0,.3-.3V170.1c0-3.58-3-8.2-6.2-8.2Z" transform="translate(-0.3 -0.3)"/><path class="cls-1" d="M77.9,148.8a.82.82,0,0,1-.8-.8V127.9c0-3.35,2.68-7.4,6-7.4h.3a7.41,7.41,0,0,1,7.4,7.4V148a.68.68,0,0,1-.13.54.77.77,0,0,1-.57.26Zm12-.8a.29.29,0,0,0,.3-.3V127.9a6.71,6.71,0,0,0-6.7-6.7h-.3c-2.8,0-5.2,3.63-5.2,6.6v19.68a.29.29,0,0,0-.1.22.29.29,0,0,0,.3.3H89.9Z" transform="translate(-0.3 -0.3)"/><path class="cls-1" d="M78.9,110.7a.7.7,0,0,1-.7-.7V88.8c0-2.91,2.36-6.3,5.4-6.3a6.38,6.38,0,0,1,6.3,6.3V110a.76.76,0,0,1-.7.7Zm10-.6a.29.29,0,0,0,.3-.3V88.9a5.6,5.6,0,0,0-5.6-5.6c-2.69,0-4.7,3-4.7,5.7v20.65a.3.3,0,0,0-.05.15c0,.17.08.3.25.3h9.8Z" transform="translate(-0.3 -0.3)"/><path class="cls-1" d="M78.8,72.1a.57.57,0,0,1-.5-.5V56.2a4.51,4.51,0,0,1,4.5-4.5h1.6A5.31,5.31,0,0,1,89.7,57V71.6a.44.44,0,0,1-.5.5Zm3.9-20a4.11,4.11,0,0,0-4.1,4.1V71.4a.29.29,0,0,0,.3.3h10a.29.29,0,0,0,.3-.3V57a4.91,4.91,0,0,0-4.9-4.9Z" transform="translate(-0.3 -0.3)"/><rect class="cls-1" x="51.8" y="307.4" width="2.4" height="50.4"/><rect class="cls-1" x="55" y="250.4" width="2.4" height="43.4"/><rect class="cls-1" x="58.3" y="200.4" width="1.9" height="43.4"/><rect class="cls-1" x="108.3" y="200.4" width="1.9" height="43.4"/><rect class="cls-1" x="105.3" y="154.4" width="1.8" height="40.4"/><rect class="cls-1" x="60.8" y="154.4" width="1.8" height="40.4"/><rect class="cls-1" x="101.9" y="116.4" width="1.5" height="31.4"/><rect class="cls-1" x="62.9" y="116.4" width="1.5" height="31.4"/><rect class="cls-1" x="64.9" y="76.4" width="1.5" height="31.4"/><rect class="cls-1" x="67.1" y="45.4" width="1.3" height="24.4"/><rect class="cls-1" x="100.1" y="45.4" width="1.3" height="24.4"/><rect class="cls-1" x="100.9" y="76.4" width="1.5" height="31.4"/><rect class="cls-1" x="111" y="250.4" width="2.4" height="43.4"/><rect class="cls-1" x="114" y="307.4" width="2.4" height="50.4"/><path class="cls-1" d="M134.5,340.3a9.41,9.41,0,0,1-9.4-9.4,9.4,9.4,0,0,1,18.8,0A9.41,9.41,0,0,1,134.5,340.3Zm0-16a6.6,6.6,0,1,0,6.6,6.6A6.61,6.61,0,0,0,134.5,324.3Z" transform="translate(-0.3 -0.3)"/><path class="cls-1" d="M34.5,340.3a9.41,9.41,0,0,1-9.4-9.4,9.4,9.4,0,0,1,18.8,0A9.41,9.41,0,0,1,34.5,340.3Zm0-16a6.6,6.6,0,1,0,6.6,6.6A6.61,6.61,0,0,0,34.5,324.3Z" transform="translate(-0.3 -0.3)"/><path class="cls-1" d="M39.5,279a8.2,8.2,0,1,1,8.2-8.2A8.21,8.21,0,0,1,39.5,279Zm0-14a5.8,5.8,0,0,0-5.8,5.8,5.8,5.8,0,1,0,11.6,0A5.8,5.8,0,0,0,39.5,265Z" transform="translate(-0.3 -0.3)"/><path class="cls-1" d="M44.5,225.8a6.91,6.91,0,0,1-6.9-6.9,6.9,6.9,0,1,1,13.8,0A6.91,6.91,0,0,1,44.5,225.8Zm0-12a5.11,5.11,0,0,0-5.1,5.1,5.1,5.1,0,0,0,10.2,0A5.11,5.11,0,0,0,44.5,213.8Z" transform="translate(-0.3 -0.3)"/><path class="cls-1" d="M120,178.2c-3.2,0-5.8-3-5.8-6.8s2.66-6.8,5.8-6.8,5.8,3.11,5.8,6.8S123.2,178.2,120,178.2Zm0-12c-2.28,0-4.2,2.38-4.2,5.2s1.85,5.2,4.2,5.2,4.2-2.28,4.2-5.2S122.28,166.2,120,166.2Z" transform="translate(-0.3 -0.3)"/><path class="cls-1" d="M116,135.1a5.7,5.7,0,1,1,5.7-5.7A5.71,5.71,0,0,1,116,135.1Zm0-10a4.3,4.3,0,1,0,4.3,4.3A4.31,4.31,0,0,0,116,125.1Z" transform="translate(-0.3 -0.3)"/><path class="cls-1" d="M53,135.1a5.7,5.7,0,1,1,5.7-5.7A5.71,5.71,0,0,1,53,135.1Zm0-10a4.3,4.3,0,1,0,4.3,4.3A4.31,4.31,0,0,0,53,125.1Z" transform="translate(-0.3 -0.3)"/><path class="cls-1" d="M55,97c-2.49,0-4.6-2.56-4.6-5.6s2.11-5.6,4.6-5.6,4.6,2.56,4.6,5.6S57.49,97,55,97Zm0-10c-1.87,0-3.4,2-3.4,4.4s1.53,4.4,3.4,4.4,3.4-2,3.4-4.4S56.88,87,55,87Z" transform="translate(-0.3 -0.3)"/><path class="cls-1" d="M59,62.9a4.53,4.53,0,1,1,4-4.5A4.23,4.23,0,0,1,59,62.9Zm0-8a3.32,3.32,0,0,0-3.1,3.5A3.24,3.24,0,0,0,59,61.9a3.53,3.53,0,0,0,0-7Z" transform="translate(-0.3 -0.3)"/><path class="cls-1" d="M109,62.9a4.53,4.53,0,1,1,4-4.5A4.23,4.23,0,0,1,109,62.9Zm0-8a3.32,3.32,0,0,0-3.1,3.5,3.24,3.24,0,0,0,3.1,3.5,3.53,3.53,0,0,0,0-7Z" transform="translate(-0.3 -0.3)"/><path class="cls-1" d="M113,97c-2.49,0-4.6-2.56-4.6-5.6s2.11-5.6,4.6-5.6,4.6,2.56,4.6,5.6S115.49,97,113,97Zm0-10c-1.87,0-3.4,2-3.4,4.4s1.53,4.4,3.4,4.4,3.4-2,3.4-4.4S114.88,87,113,87Z" transform="translate(-0.3 -0.3)"/><path class="cls-1" d="M48,178.2c-3.2,0-5.8-3-5.8-6.8s2.66-6.8,5.8-6.8,5.8,3.11,5.8,6.8S51.2,178.2,48,178.2Zm0-12c-2.28,0-4.2,2.38-4.2,5.2s1.85,5.2,4.2,5.2,4.2-2.28,4.2-5.2S50.28,166.2,48,166.2Z" transform="translate(-0.3 -0.3)"/><path class="cls-1" d="M124,226.3a6.91,6.91,0,0,1-6.9-6.9,6.9,6.9,0,1,1,13.8,0A6.91,6.91,0,0,1,124,226.3Zm0-12a5.11,5.11,0,0,0-5.1,5.1,5.1,5.1,0,0,0,10.2,0A5.11,5.11,0,0,0,124,214.3Z" transform="translate(-0.3 -0.3)"/><path class="cls-1" d="M129.5,279a8.2,8.2,0,1,1,8.2-8.2A8.21,8.21,0,0,1,129.5,279Zm0-14a5.8,5.8,0,0,0-5.8,5.8,5.8,5.8,0,0,0,11.6,0A5.8,5.8,0,0,0,129.5,265Z" transform="translate(-0.3 -0.3)"/><path class="cls-1" d="M155.72,308.93a53,53,0,0,0,8.87-20.17.3.3,0,0,0-.15-.33.35.35,0,0,0-.14,0,.28.28,0,0,0-.22.1,30.34,30.34,0,0,1-7.33,5.64,21.71,21.71,0,0,1-10.85,2.76l-125.5-1a21.31,21.31,0,0,1-15.19-6A.32.32,0,0,0,5,289.8a.32.32,0,0,0-.16,0,.32.32,0,0,0-.13.35c1.36,4.39,4.16,12.22,7.87,16l-1.68,1.67C5,301.68,1.19,286.78.49,283.83a1.18,1.18,0,0,1,.82-1.45,1.07,1.07,0,0,1,.47-.1,1.12,1.12,0,0,1,1,.64A19.71,19.71,0,0,0,20.5,293.6l125.5,1h.51a18.47,18.47,0,0,0,9.14-2.45c3.11-1.8,7.28-4.85,9.52-9.12a1.17,1.17,0,0,1,1.14-.7,2,2,0,0,1,.42.05,1.42,1.42,0,0,1,1,1.31,54.62,54.62,0,0,1-10.07,26.58Z" transform="translate(-0.3 -0.3)"/><path class="cls-1" d="M148.42,250.73a47.78,47.78,0,0,0,8-18.07.3.3,0,0,0-.15-.33.35.35,0,0,0-.14,0,.28.28,0,0,0-.22.1,25.86,25.86,0,0,1-6.52,5,19.13,19.13,0,0,1-9.66,2.46L27.1,239a19.44,19.44,0,0,1-13.5-5.22.3.3,0,0,0-.2-.08.3.3,0,0,0-.16.05.29.29,0,0,0-.12.35c1.89,5.58,4.93,12.59,7.86,15.79l-1.38,1.38c-5.2-5.45-9.52-19.6-10.41-23.14a1,1,0,0,1,.69-1.24,1.64,1.64,0,0,1,.42-.06.93.93,0,0,1,.92.59A17.67,17.67,0,0,0,27.1,237l112.6.9a16.83,16.83,0,0,0,8.65-2.24c2.81-1.61,6.57-4.34,8.52-8.23a1.27,1.27,0,0,1,1.16-.65l.23,0a1.19,1.19,0,0,1,.84,1.2A49.37,49.37,0,0,1,150,251.88Z" transform="translate(-0.3 -0.3)"/><path class="cls-1" d="M141.61,201.33a42.61,42.61,0,0,0,7.08-16.17.3.3,0,0,0-.15-.33.35.35,0,0,0-.14,0,.31.31,0,0,0-.22.09,25.3,25.3,0,0,1-5.83,4.55,17.54,17.54,0,0,1-8.65,2.26l-100.6-.8a17.13,17.13,0,0,1-12-4.62.3.3,0,0,0-.2-.08.3.3,0,0,0-.16.05.29.29,0,0,0-.12.35c1.06,3.14,3.85,10.68,7.05,14.09l-1.26,1.19c-4.76-5-8.77-18.36-9.32-20.65l-.15-.74.77-.31a1.21,1.21,0,0,1,.34-.05.85.85,0,0,1,.78.5A15.78,15.78,0,0,0,33,189.2l100.6.8a15.48,15.48,0,0,0,7.75-2c2.51-1.41,5.88-3.84,7.62-7.43a1.21,1.21,0,0,1,1-.55l.18,0a1.06,1.06,0,0,1,.75,1c0,.42-.09,10.23-7.87,21.38Z" transform="translate(-0.3 -0.3)"/><path class="cls-1" d="M134.52,154.43a38,38,0,0,0,6.17-14.17.3.3,0,0,0-.16-.33.28.28,0,0,0-.13,0,.27.27,0,0,0-.22.1,19.65,19.65,0,0,1-5.13,3.94,15.61,15.61,0,0,1-7.55,2l-88.2-.7a15.1,15.1,0,0,1-10.5-4,.3.3,0,0,0-.2-.08.3.3,0,0,0-.16.05.29.29,0,0,0-.12.35c.72,2.13,3.28,9.21,6.16,12.3l-1,1c-4.44-4.73-8-17.5-8.11-18.05l-.14-.65.67-.3a.82.82,0,0,1,.28-.05.66.66,0,0,1,.62.39A13.85,13.85,0,0,0,39.3,143.7l88.2.7a14.16,14.16,0,0,0,6.84-1.74,16.64,16.64,0,0,0,6.73-6.53.81.81,0,0,1,.77-.46l.2,0a.73.73,0,0,1,.56.86c0,3.41-1.45,11.1-6.87,18.73Z" transform="translate(-0.3 -0.3)"/><path class="cls-1" d="M37.4,115.57c-2.83-3.11-4.46-10.62-5.35-14.71l-.16-.72a9,9,0,0,0-.31-1.53l-.13-.55.58-.29a.66.66,0,0,1,.25,0,.56.56,0,0,1,.54.39A12.61,12.61,0,0,0,44,104.9l79.1.6a12.53,12.53,0,0,0,6.15-1.54,14.45,14.45,0,0,0,6-5.83.71.71,0,0,1,.6-.39.54.54,0,0,1,.22,0,.68.68,0,0,1,.44.29.44.44,0,0,1,.08.36,32.6,32.6,0,0,1-6.28,16.65l-1-.75a35.69,35.69,0,0,0,5.57-12.66.31.31,0,0,0-.15-.34.32.32,0,0,0-.14,0,.31.31,0,0,0-.22.09,19.39,19.39,0,0,1-4.53,3.55,13.38,13.38,0,0,1-6.75,1.76L44,106.1a13.17,13.17,0,0,1-9.88-4.21.31.31,0,0,0-.22-.09.32.32,0,0,0-.14,0,.3.3,0,0,0-.15.33c1,4.56,2.43,10,4.67,12.53Z" transform="translate(-0.3 -0.3)"/><path class="cls-1" d="M42.38,77.55c-3.12-3.42-6-12.46-6.79-15.43l-.13-.45.46-.19a.46.46,0,0,1,.22-.06.57.57,0,0,1,.49.31A11.53,11.53,0,0,0,47,68l73,.6a11.58,11.58,0,0,0,5.65-1.44,14.44,14.44,0,0,0,5.62-5.42.69.69,0,0,1,.62-.37l.14,0a.69.69,0,0,1,.47.71,30.91,30.91,0,0,1-5.77,15.28l-.91-.65a31.07,31.07,0,0,0,5.07-11.67.3.3,0,0,0-.15-.33.35.35,0,0,0-.14,0,.28.28,0,0,0-.22.1A17.09,17.09,0,0,1,126.16,68a11.8,11.8,0,0,1-5.78,1.57h-.47l-73-.6a12.72,12.72,0,0,1-8.7-3.32.32.32,0,0,0-.2-.08.34.34,0,0,0-.17.05.3.3,0,0,0-.11.35c1.94,5.53,3.67,9.07,5.28,10.81Z" transform="translate(-0.3 -0.3)"/><path class="cls-1" d="M120.82,45.84a26.83,26.83,0,0,0,4.47-10.18.3.3,0,0,0-.15-.33.35.35,0,0,0-.14,0,.28.28,0,0,0-.22.1,14.94,14.94,0,0,1-3.62,2.84,10.49,10.49,0,0,1-5.46,1.36l-64-.6a11.06,11.06,0,0,1-7.6-2.93.37.37,0,0,0-.2-.07.34.34,0,0,0-.17,0,.29.29,0,0,0-.11.34c.7,2.12,2.52,7.16,4.56,9.4l-.57.58c-2.89-3.15-5.43-11.49-5.92-13.44l-.12-.35.81-.31.27.4A10.11,10.11,0,0,0,51.7,38.1l64,.5a10.4,10.4,0,0,0,4.94-1.24,11.65,11.65,0,0,0,4.93-4.73.66.66,0,0,1,.46-.26l.47.15V33a28.16,28.16,0,0,1-5,13.37Z" transform="translate(-0.3 -0.3)"/><rect class="cls-1" x="7.8" y="299.7" width="151.8" height="2.3"/><path class="cls-1" d="M116.3,300.56a30.67,30.67,0,0,0,1.49-4.18.31.31,0,0,0-.27-.38l-4.42-.26.83-1.05c1.4-1.8,4.29-7.65,6.54-12.67a.73.73,0,0,1,.74-.44,1,1,0,0,1,.24,0,.71.71,0,0,1,.43.28.58.58,0,0,1,.13.46,82,82,0,0,1-2.2,12.48l-.17,1.19a.3.3,0,0,0-.23.2,36.12,36.12,0,0,1-1.85,5Z" transform="translate(-0.3 -0.3)"/><path class="cls-1" d="M113.3,242a23.26,23.26,0,0,0,1.09-3.08.28.28,0,0,0,0-.25.29.29,0,0,0-.22-.13l-3.24-.17.56-.75c1.45-1.86,4.45-8.4,4.94-9.67l.19-.38.49.07a.5.5,0,0,1,.28.21.43.43,0,0,1,.07.32,56,56,0,0,1-1.7,9.49l-.08.89a.31.31,0,0,0-.22.21,24.88,24.88,0,0,1-1.27,3.67Z" transform="translate(-0.3 -0.3)"/><path class="cls-1" d="M109.19,195.45c.3-.69,1.1-2.62,1.9-5.16a.34.34,0,0,0,0-.26.32.32,0,0,0-.23-.13l-2.85-.17.47-.65a61.92,61.92,0,0,0,4.53-8.86l.12-.28.36.06a.45.45,0,0,1,.35.5,46.7,46.7,0,0,1-1.49,8l-.18,1.48h0a.3.3,0,0,0-.29.23A31.73,31.73,0,0,1,110,195.8Z" transform="translate(-0.3 -0.3)"/><path class="cls-1" d="M106.3,149.75a43.57,43.57,0,0,0,1.69-4.56.34.34,0,0,0,0-.26.3.3,0,0,0-.23-.13l-2.44-.16.36-.46a55.27,55.27,0,0,0,4-7.75l.12-.29.36.06a.45.45,0,0,1,.25.4,36.06,36.06,0,0,1-1.29,7l-.17,1.29a.27.27,0,0,0-.22.2c-.82,2.43-1.57,4.22-1.87,4.89Z" transform="translate(-0.3 -0.3)"/><path class="cls-1" d="M103.3,110.75a43.57,43.57,0,0,0,1.69-4.56.34.34,0,0,0,0-.26.3.3,0,0,0-.23-.13l-2.44-.16.36-.46a55.27,55.27,0,0,0,4-7.75l.12-.29.36.06a.45.45,0,0,1,.25.4,36.06,36.06,0,0,1-1.29,7l-.17,1.29a.27.27,0,0,0-.22.2c-.82,2.43-1.57,4.22-1.87,4.89Z" transform="translate(-0.3 -0.3)"/><path class="cls-1" d="M102.29,72.26a27.47,27.47,0,0,0,1.2-3.38.31.31,0,0,0,0-.26.29.29,0,0,0-.23-.12l-1.68-.07.2-.23a35.18,35.18,0,0,0,3-6l.08-.17.34.08v.17a40.74,40.74,0,0,1-1,5.33l-.08.88a.3.3,0,0,0-.22.2,32.34,32.34,0,0,1-1.34,3.69Z" transform="translate(-0.3 -0.3)"/><path class="cls-1" d="M99.29,44.26a27.47,27.47,0,0,0,1.2-3.38.31.31,0,0,0,0-.26.29.29,0,0,0-.23-.12l-1.68-.07.2-.23a35.18,35.18,0,0,0,3-6l.08-.17.34.08v.17a40.74,40.74,0,0,1-1,5.33l-.08.88a.3.3,0,0,0-.22.2,32.34,32.34,0,0,1-1.34,3.69Z" transform="translate(-0.3 -0.3)"/><path class="cls-1" d="M50.23,301.22a46.19,46.19,0,0,1-1.74-4.81.31.31,0,0,0-.23-.2l-.16-1.15a64.28,64.28,0,0,1-2.2-12.48,1,1,0,0,1,.61-.9h.14a.89.89,0,0,1,.79.48c3.1,6.9,5.3,11.17,6.53,12.64l.83,1-4.42.26a.3.3,0,0,0-.23.13.34.34,0,0,0,0,.26c.64,2,1.18,3.33,1.44,4l.07.17Z" transform="translate(-0.3 -0.3)"/><path class="cls-1" d="M54.43,244.51A34.82,34.82,0,0,1,53,240.42a.3.3,0,0,0-.24-.21l-.15-1a56.11,56.11,0,0,1-1.9-10.68l-.07-.47.58-.22h.1a.7.7,0,0,1,.62.36c1.19,2.63,4.12,9,5.53,10.85l.65.85-3.72.17a.29.29,0,0,0-.24.13.3.3,0,0,0,0,.26c.53,1.61,1,2.73,1.22,3.32a1.85,1.85,0,0,0,.09.23Z" transform="translate(-0.3 -0.3)"/><path class="cls-1" d="M57.63,195.12a37.55,37.55,0,0,1-1.34-3.71.34.34,0,0,0-.22-.2l-.07-.84a57.75,57.75,0,0,1-1.8-9.8l-.07-.45.45-.13.13,0a.6.6,0,0,1,.52.36c1.34,3,3.79,8.27,5.14,10l.55.74-3.33.17a.32.32,0,0,0-.24.13.34.34,0,0,0,0,.26,28,28,0,0,0,1.19,3.16Z" transform="translate(-0.3 -0.3)"/><path class="cls-1" d="M59.85,150.57a22.71,22.71,0,0,1-1.16-3.25.28.28,0,0,0-.22-.21l-.07-.74a48.22,48.22,0,0,1-1.6-8.8l-.06-.37.35-.12h.11a.55.55,0,0,1,.45.3c1.48,3.46,3.5,7.6,4.62,8.92l.53.64-2.92.17a.32.32,0,0,0-.23.13.33.33,0,0,0,0,.26,16.91,16.91,0,0,0,1,2.85l-.78.28Z" transform="translate(-0.3 -0.3)"/><path class="cls-1" d="M62.85,110.57a22.71,22.71,0,0,1-1.16-3.25.28.28,0,0,0-.22-.21l-.07-.74a48.22,48.22,0,0,1-1.6-8.8l-.06-.37.35-.12h.11a.55.55,0,0,1,.45.3c1.48,3.46,3.5,7.6,4.62,8.92l.53.64-2.92.17a.32.32,0,0,0-.23.13.33.33,0,0,0,0,.26,16.91,16.91,0,0,0,1,2.85l-.78.28Z" transform="translate(-0.3 -0.3)"/><path class="cls-1" d="M64.86,73.79a17.75,17.75,0,0,1-1-2.77.3.3,0,0,0-.12-.17l-.07-.59a37.48,37.48,0,0,1-1.3-7.48V62.5l.31-.12h0a.54.54,0,0,1,.43.29c.62,1.38,2.79,6.14,3.92,7.52l.35.45L65,70.8a.32.32,0,0,0-.23.13.32.32,0,0,0,0,.25,16.39,16.39,0,0,0,.87,2.36l-.71.27Z" transform="translate(-0.3 -0.3)"/><path class="cls-1" d="M66.86,44.79a17.75,17.75,0,0,1-1-2.77.3.3,0,0,0-.12-.17l-.07-.59a37.48,37.48,0,0,1-1.3-7.48V33.5l.31-.12h0a.54.54,0,0,1,.43.29c.62,1.38,2.79,6.14,3.92,7.52l.35.45L67,41.8a.32.32,0,0,0-.23.13.32.32,0,0,0,0,.25,16.39,16.39,0,0,0,.87,2.36l-.71.27Z" transform="translate(-0.3 -0.3)"/><rect class="cls-1" x="16.3" y="243" width="136.4" height="2.4"/><rect class="cls-1" x="26" y="238.2" width="119.4" height="4.7"/><rect class="cls-1" x="30.6" y="149.2" width="107.9" height="2.1"/><rect class="cls-1" x="38.3" y="144.5" width="94.4" height="4.1"/><rect class="cls-1" x="35" y="109.2" width="97.4" height="1.9"/><rect class="cls-1" x="42" y="105.2" width="85.3" height="4.7"/><rect class="cls-1" x="40" y="72.3" width="87.4" height="1.8"/><rect class="cls-1" x="45.4" y="68.3" width="78.3" height="4.5"/><rect class="cls-1" x="45" y="41.4" width="77.4" height="1.7"/><rect class="cls-1" x="48.9" y="37.5" width="71.1" height="4.2"/><rect class="cls-1" x="83.62" y="133.92" width="1.7" height="122.39" transform="translate(-111.79 277.33) rotate(-89.42)"/><path class="cls-1" d="M135.1,190.4V155.6a.29.29,0,0,0-.3-.3H34.2a.29.29,0,0,0-.3.3v34.5H32.1V153.5H136.9v36.9Z" transform="translate(-0.3 -0.3)"/><path class="cls-1" d="M129.3,148.1V116.4a.29.29,0,0,0-.3-.3H39.1a.31.31,0,0,0-.22.09.35.35,0,0,0-.08.22l.89,27.91-1.4.06-1-29.68H130.7v33.4Z" transform="translate(-0.3 -0.3)"/><path class="cls-1" d="M125.3,106.6V77.9a.29.29,0,0,0-.3-.3H43.5a.29.29,0,0,0-.3.3v27.2H41.8V77.5a1.28,1.28,0,0,1,1.3-1.3h82.3a1.28,1.28,0,0,1,1.3,1.3v29.1Z" transform="translate(-0.3 -0.3)"/><path class="cls-1" d="M120.4,72.1V45.8a.29.29,0,0,0-.3-.3H48.4a.29.29,0,0,0-.3.3V70.7H46.9V45.4A1.15,1.15,0,0,1,48,44.2h72.4a1.15,1.15,0,0,1,1.1,1.2V72.1Z" transform="translate(-0.3 -0.3)"/><path class="cls-1" d="M116.76,39C99.28,30.81,87.65,16.93,83.44,11.32a.3.3,0,0,0-.24-.12h0a.31.31,0,0,0-.24.16C75.37,25.25,55.2,37.44,52.72,38.89l-.82-1.48c2.65-1.57,24-14.7,30.37-28.48l.66-1.33.82,1.26c.07.14,12.72,18.85,33.75,28.59Z" transform="translate(-0.3 -0.3)"/><circle class="cls-1" cx="82.7" cy="10.1" r="4.7"/><path class="cls-1" d="M83,15.6a5.27,5.27,0,0,1-5.2-5.2,5.2,5.2,0,1,1,10.4,0A5.27,5.27,0,0,1,83,15.6Zm0-10a4.8,4.8,0,1,0,4.8,4.8A4.8,4.8,0,0,0,83,5.6Z" transform="translate(-0.3 -0.3)"/><path class="cls-1" d="M83,7.3a3.5,3.5,0,1,1,3.5-3.5A3.5,3.5,0,0,1,83,7.3Zm0-5a1.52,1.52,0,0,0-1.5,1.5,1.5,1.5,0,0,0,3,0A1.52,1.52,0,0,0,83,2.3Z" transform="translate(-0.3 -0.3)"/><rect class="cls-1" x="18.29" y="295.15" width="131.04" height="4.7"/><rect class="cls-1" x="44" y="355.4" width="1.4" height="19.4"/><rect class="cls-1" x="120" y="355.4" width="1.4" height="19.4"/><g id="SVGID"><path class="cls-1" d="M159.5,387.2H8.5a.3.3,0,1,1,0-.6h151a.3.3,0,0,1,0,.6Z" transform="translate(-0.3 -0.3)"/></g><rect class="cls-1" x="8.5" y="385.9" width="150.4" height="1.4"/></g></g></svg>