<svg xmlns="http://www.w3.org/2000/svg" viewBox="0 0 623 121.5"><defs><style>.cls-1{fill:#efefef;}</style></defs><g id="Layer_2" data-name="Layer 2"><g id="Layer_1-2" data-name="Layer 1"><path class="cls-1" d="M615.4,121.5l-51.09-.7H558.8a4.46,4.46,0,0,1-.95-.08,5.48,5.48,0,0,1-1.08-.36,3.85,3.85,0,0,1-1.55-1.56,5.92,5.92,0,0,1-.34-1,5.15,5.15,0,0,1-.08-1.07,9.5,9.5,0,0,1,3.1-6.85,9.37,9.37,0,0,1,1.53-1.25,2.48,2.48,0,0,1,.39-.21c.17-.09.34-.18.51-.29l.74-.36,5.78-2.94a.6.6,0,0,0,.33-.55l-.58-17.87-.1-4.59-.1-2.32V79a.87.87,0,0,0-.11-.4,1.41,1.41,0,0,0-.46-.82,2.39,2.39,0,0,0-.59-.38,1,1,0,0,0-.64-.2H371.3l-12.42.08c-8.12,0-16.52.09-24.79.22l-37.2.6-37.2.5-37.19.2-74.4.5L0,80.2V75.7l222.5-.3h37.2l111.6.3H565a2.41,2.41,0,0,1,.71.17,3.4,3.4,0,0,1,1.27.85,3.27,3.27,0,0,1,.75,1.27,2.49,2.49,0,0,1,.17.71v.7l.1,2.33.1,4.58.6,18.61v.51l-7,3.53-.8.4a2.35,2.35,0,0,0-.54.3,1,1,0,0,1-.16.1l-.09.06a10.43,10.43,0,0,0-1.26,1.06,6.89,6.89,0,0,0-1.94,2.7,8.26,8.26,0,0,0-.74,3.22v.6a.66.66,0,0,0,.06.27,1,1,0,0,1,.07.17,2.47,2.47,0,0,0,.13.33,2,2,0,0,0,.91.93l.17.1a1.29,1.29,0,0,0,.66.2h6.2l51.09.7h3.61a3,3,0,0,0,2.31-1.47,1.41,1.41,0,0,0,.28-.68,2,2,0,0,0,.11-.85l.1-1.77V113.6a3.38,3.38,0,0,0-.36-1.57,4.38,4.38,0,0,0-2.2-2.08,14.06,14.06,0,0,1-3.26-2,15.78,15.78,0,0,1-4.42-6.15,17,17,0,0,1-.86-3.73,24.72,24.72,0,0,1-.2-3.75l-.3-14.61-.1-3.61V74.3A5.84,5.84,0,0,0,610,73l0-.22a5.49,5.49,0,0,0-4.86-3.68H284.3V67.8l174.6.3H605a6.58,6.58,0,0,1,5.93,4.48,7.15,7.15,0,0,1,.37,1.92v1.8l.5,18.22c0,1.17,0,2.41.1,3.53a12.06,12.06,0,0,0,.84,3.37,13.87,13.87,0,0,0,4.08,5.64,14.09,14.09,0,0,0,2.91,1.88,5.65,5.65,0,0,1,2.82,2.8,4.82,4.82,0,0,1,.45,2v1.9l-.1,1.77a4.1,4.1,0,0,1-.08,1,4.05,4.05,0,0,1-3.74,3.15Z"/><rect class="cls-1" x="17.06" y="67.92" width="195.71" height="4.5" transform="translate(-0.64 1.06) rotate(-0.53)"/><rect class="cls-1" x="247.66" y="27.21" width="2.1" height="82.5" transform="translate(177.6 316.43) rotate(-89.39)"/><rect class="cls-1" x="283.7" y="69.6" width="292.8" height="2.9"/><rect class="cls-1" x="580.79" y="47.42" width="1.3" height="58" transform="translate(499.34 657.09) rotate(-89.44)"/><rect class="cls-1" x="589.03" y="64.87" width="0.8" height="43.4" transform="translate(495.31 674.83) rotate(-89.27)"/><rect class="cls-1" x="588.98" y="71.1" width="0.8" height="43.5" transform="translate(490.34 681.22) rotate(-89.4)"/><rect class="cls-1" x="589" y="76.9" width="0.8" height="43.5"/><rect class="cls-1" x="246.91" y="63.92" width="0.8" height="43.4" transform="translate(158.52 331.82) rotate(-89.27)"/><rect class="cls-1" x="247.83" y="69.32" width="0.8" height="45.2" transform="translate(153.25 339) rotate(-89.29)"/><rect class="cls-1" x="246.9" y="76.1" width="0.8" height="43.5"/><path class="cls-1" d="M217,119.8a3.14,3.14,0,0,1-3.1-3.1v-5.2a4.93,4.93,0,0,1,3.21-4.64l7.84-3a.68.68,0,0,0,.55-.68l-.39-26.1h1.3l.39,26.11a1.89,1.89,0,0,1-1.22,1.83l-7.89,3a3.73,3.73,0,0,0-2.39,3.46v5.2a1.93,1.93,0,0,0,1.9,1.9h61.6a1.24,1.24,0,0,0,1.2-1.2v-5.6a2.65,2.65,0,0,0-1.79-2.46l-5.42-1.81a5.21,5.21,0,0,1-3.59-4.93l-.59-25.52,1.3-.06.59,25.49a4.12,4.12,0,0,0,2.8,3.75l5.41,1.81a3.92,3.92,0,0,1,2.69,3.63v5.53a3.14,3.14,0,0,1-2.8,2.57Z"/><rect class="cls-1" x="243.53" y="71.41" width="7.7" height="2.1" transform="translate(171.54 318.83) rotate(-89.22)"/><path class="cls-1" d="M256.62,67.64c.77-3,5.58-18.25,26.44-33.76S345.81,0,426.1,0c86.28,0,128.34,18.26,148.44,33.58,19.29,14.77,22.63,29.61,23.19,33.56l-2.1.13C595.16,64.08,592,49.38,573,34.92,553.14,19.9,511.58,2,426.2,2,346.74,2,305.42,20.06,284.75,35.22c-20,14.72-25.14,29.51-26.08,32.87Z"/><path class="cls-1" d="M268.82,68.13c.62-14.55,9.62-26.86,26.78-36.61,13.71-7.79,32.79-14,56.71-18.53,36.55-6.75,73.54-7.09,80.58-7.09H434c92.71,4.19,129.48,24.88,144,41.5,8.77,10,9.31,18.31,9.29,20.45l-1-.1c0-2.27-.81-10.38-9.15-19.85-14.47-16.38-51-36.79-143.12-41H432.8c-7,0-43.94.34-80.41,7.11-36.94,6.91-81.12,21.91-82.57,54.16Z"/><path class="cls-1" d="M232.58,67.82c-.17-2.34-1.49-11.2-11.75-21.64-11-11.3-34.94-27-86.51-37.67A87.33,87.33,0,0,0,124.15,7C112.54,5.84,82.68,3.14,56.46,3.14,37.92,3.14,25,4.51,18.12,7.22l-.83-1.9c7.05-2.78,20.27-4.19,39.3-4.19,12.56,0,34.52.66,67.75,3.77a104.07,104.07,0,0,1,10.34,1.59c42,8.67,71.62,21.66,87.89,38.63,10.7,11,12,20.22,12.11,22.76Z"/><path class="cls-1" d="M223.55,67.47c-.27-2.4-2-11.43-12.12-21.69-11-11-34.49-25.75-83.84-33.47-.4-.06-39.84-5.65-72.51-5.65-13.37,0-23.79.94-31,2.81l-.27-1C31.2,6.61,41.8,5.65,55.38,5.65c27.45,0,59.3,3.89,71.72,5.56l.62.08c49.91,7.89,73.53,22.81,84.55,33.93,10.56,10.65,12.08,19.87,12.29,22.21Z"/><path class="cls-1" d="M538.5,19.81a.59.59,0,0,0-.42-.58.57.57,0,0,0-.18,0,.58.58,0,0,0-.49.26l-34.7,50.6a.55.55,0,0,1-.37.22l-.12,0c-.25-.1-.37-.24-.33-.42l2.41-59.4a.61.61,0,0,0-.44-.6l-.16,0a.58.58,0,0,0-.52.31L470,69.81a.45.45,0,0,1-.35.25.22.22,0,0,1-.11,0l-.1,0a.5.5,0,0,1-.32-.51L470,6.41a.6.6,0,0,0-.45-.59l-.15,0a.6.6,0,0,0-.53.32l-34.1,63.5a.43.43,0,0,1-.34.24.22.22,0,0,1-.11,0l-.1,0a.5.5,0,0,1-.32-.51l2-65.18a.6.6,0,0,0-.45-.6l-.15,0a.6.6,0,0,0-.53.32l-34.5,65.9a.44.44,0,0,1-.41.2h-.14a.38.38,0,0,1-.32-.41l2.1-64.78a.6.6,0,0,0-.45-.6l-.15,0a.59.59,0,0,0-.53.32l-33.1,64a.44.44,0,0,1-.41.21l-.14,0a.38.38,0,0,1-.32-.41l1-60.49a.59.59,0,0,0-.45-.59l-.15,0a.6.6,0,0,0-.53.32l-33.7,62.39a.43.43,0,0,1-.41.22L332,70a.38.38,0,0,1-.32-.41L333.2,20a.59.59,0,0,0-.41-.59.63.63,0,0,0-.19,0,.58.58,0,0,0-.49.26l-33.6,49.1a.41.41,0,0,1-.33.18l-.13,0a.4.4,0,0,1-.25-.42l1.48-38.06.3,0L298.2,66.88a.6.6,0,0,0,.41.59l.19,0a.6.6,0,0,0,.5-.26l33.9-49.5c0-.06.13-.08.2-.08l.15,0a.25.25,0,0,1,.15.22l-1.5,49.78a.6.6,0,0,0,.45.6l.15,0a.61.61,0,0,0,.53-.31L367,5.49a.35.35,0,0,1,.67.21l-1,60.59a.6.6,0,0,0,.45.59l.15,0a.59.59,0,0,0,.53-.32L401,2.38a.42.42,0,0,1,.36-.21c.17,0,.35.16.32.31l-2.11,65.1a.6.6,0,0,0,.45.6l.15,0a.59.59,0,0,0,.53-.32l34.6-66.1a.42.42,0,0,1,.36-.21A.4.4,0,0,1,436,2l-2,65.68a.6.6,0,0,0,.45.6l.15,0a.6.6,0,0,0,.53-.32l34.4-64c.07-.13.16-.21.27-.21a.38.38,0,0,1,.3.33l-.9,63.79a.6.6,0,0,0,.45.59l.15,0a.6.6,0,0,0,.52-.31l33.5-60.3a.43.43,0,0,1,.37-.22.4.4,0,0,1,.31.43l-2.4,60.08a.6.6,0,0,0,.41.59.63.63,0,0,0,.19,0,.61.61,0,0,0,.5-.26l34.3-50a.61.61,0,0,1,.54-.32.86.86,0,0,1,.27.05.82.82,0,0,1,.49.73l-1,49.89a.6.6,0,0,0,.37.56.64.64,0,0,0,.23,0,.58.58,0,0,0,.43-.18l33-34.3a.37.37,0,0,1,.25-.12.28.28,0,0,1,.15,0,.41.41,0,0,1,.27.46l-.88,32.7h-.3l.88-31.48a.59.59,0,0,0-.37-.57.46.46,0,0,0-.23,0,.58.58,0,0,0-.43.18L537.43,71.37Z"/><path class="cls-1" d="M423.1,3.82a.6.6,0,0,0-.45-.6l-.15,0a.59.59,0,0,0-.53.32L386.59,70.8,388.8,4.12a.6.6,0,0,0-.45-.6l-.15,0a.59.59,0,0,0-.53.32L353.75,69.45,354.8,8.81a.61.61,0,0,0-.44-.59l-.16,0a.58.58,0,0,0-.52.31l-34.1,61.4a.42.42,0,0,1-.27.12c-.14,0-.21,0-.21-.23l1.5-50.38a.59.59,0,0,0-.41-.59.63.63,0,0,0-.19,0,.58.58,0,0,0-.49.26L285.08,69.35l1.5-39.51.3,0L285.5,66.28a.6.6,0,0,0,.41.59.63.63,0,0,0,.19,0,.6.6,0,0,0,.5-.26l33.9-49.5c0-.06.13-.08.2-.08l.15,0a.25.25,0,0,1,.15.22l-1.5,49.88a.6.6,0,0,0,.44.6l.16,0a.6.6,0,0,0,.53-.31l33.8-60.8a.42.42,0,0,1,.36-.22l.07,0a.6.6,0,0,0-.3.5.58.58,0,0,0,.53.6l-1,58.19a.6.6,0,0,0,.45.59l.15,0a.59.59,0,0,0,.53-.32l33.2-64.2a.43.43,0,0,1,.36-.21.4.4,0,0,1,.31.43l-2.1,65a.6.6,0,0,0,.45.6l.15,0a.59.59,0,0,0,.53-.32l34.6-66.1a.42.42,0,0,1,.36-.21.4.4,0,0,1,.31.43l-2,65.68a.6.6,0,0,0,.45.6l.15,0a.6.6,0,0,0,.53-.32l34.4-64c.07-.13.16-.21.26-.21a.38.38,0,0,1,.31.33l-.9,63.79a.6.6,0,0,0,.45.59l.15,0a.6.6,0,0,0,.52-.31l33.7-60.5c.05-.08.08-.13.2-.13l.13,0c.08,0,.19.1.17.17a.51.51,0,0,0,0,.13l-2.4,60.4a.6.6,0,0,0,.42.59.57.57,0,0,0,.18,0,.6.6,0,0,0,.5-.27l34.08-51.67a6.76,6.76,0,0,0,.68-1.44,13.28,13.28,0,0,1,1.18-2.27s0,0,.06,0l.1,0-1.5,55.57a.61.61,0,0,0,.6.62.56.56,0,0,0,.43-.19l33-34.39a.4.4,0,0,1,.25-.12.28.28,0,0,1,.15,0c.25.12.27.24.27.36L559,67.5h-.3L559.6,36a.61.61,0,0,0-.6-.62.58.58,0,0,0-.43.18L524.84,70.76l1.56-54.44a.6.6,0,0,0-.45-.6l-.15,0a.63.63,0,0,0-.54.33,5.07,5.07,0,0,0-.33.74L489.19,71l2.51-61a.61.61,0,0,0-.44-.6l-.16,0a.58.58,0,0,0-.52.31L456.43,71l.87-65a.6.6,0,0,0-.45-.59l-.15,0a.6.6,0,0,0-.53.32L421.08,71.07Z"/><path class="cls-1" d="M140,11.61a.6.6,0,0,0-.45-.59l-.15,0a.58.58,0,0,0-.52.31l-32.4,58.3a.62.62,0,0,1-.53.31h-.13a.6.6,0,0,1-.42-.61l.9-61.89a.6.6,0,0,0-.45-.59l-.15,0a.6.6,0,0,0-.53.32l-33.5,62.4a.6.6,0,0,1-.52.3H71a.6.6,0,0,1-.42-.61L72.1,5.31a.6.6,0,0,0-.45-.59l-.15,0A.59.59,0,0,0,71,5l-33.7,64.5a.6.6,0,0,1-.52.3h-.13a.6.6,0,0,1-.42-.61L37.9,5.62a.58.58,0,0,0-.46-.6.32.32,0,0,0-.14,0,.61.61,0,0,0-.54.34l-11.24,23-.21-.1L37.14,3.86a.52.52,0,0,1,.5-.28h.14a.6.6,0,0,1,.42.61L36.5,68a.6.6,0,0,0,.45.6l.15,0a.59.59,0,0,0,.53-.32l33.7-64.5a.54.54,0,0,1,.52-.31l.13,0A.57.57,0,0,1,72.4,4L70.9,68.09a.6.6,0,0,0,.45.59l.15,0a.6.6,0,0,0,.53-.32l34-63.3c.07-.13.16-.21.27-.21a.38.38,0,0,1,.3.33l-.9,63a.6.6,0,0,0,.45.59l.15,0a.58.58,0,0,0,.52-.31l32.9-59.2c.05-.08.08-.13.2-.13l.14,0a.37.37,0,0,1,.24.32l-.7,58.39a.6.6,0,0,0,.42.58.57.57,0,0,0,.18,0,.61.61,0,0,0,.5-.26l33.69-49.1a.57.57,0,0,1,.39-.17.38.38,0,0,1,.32.33l-.8,49.19a.6.6,0,0,0,.36.56.69.69,0,0,0,.24,0,.61.61,0,0,0,.42-.17L209,35.63a.25.25,0,0,1,.22-.09l.17,0a.32.32,0,0,1,.19.33L208.91,68h-.3l.69-30.79a.62.62,0,0,0-.36-.56.69.69,0,0,0-.24,0,.61.61,0,0,0-.42.17L174,70.64l.87-49.53a.6.6,0,0,0-.42-.58.57.57,0,0,0-.18,0,.58.58,0,0,0-.49.26L139.32,70.64Z"/><path class="cls-1" d="M60.4,3.91a.82.82,0,0,0-.8-.81.72.72,0,0,0-.77.49L24.57,68.94,26.3,2.82a.58.58,0,0,0-.46-.6l-.14,0a.61.61,0,0,0-.54.34l-11.24,23-.21-.1L25.54,1.06A.49.49,0,0,1,26,.74a.2.2,0,0,1,.11,0l.1,0a.6.6,0,0,1,.42.61L24.9,65.18a.6.6,0,0,0,.45.6l.15,0a.59.59,0,0,0,.53-.32l32.6-62.4a1.23,1.23,0,0,1,1-.63.64.64,0,0,1,.2,0A1.11,1.11,0,0,1,60.7,3.6L59.2,65.29a.6.6,0,0,0,.45.59l.15,0a.6.6,0,0,0,.53-.32l32.6-60.9a1,1,0,0,1,.84-.54.84.84,0,0,1,.27,0,1,1,0,0,1,.76,1l-.9,60.29a.6.6,0,0,0,.44.59l.16,0a.58.58,0,0,0,.52-.31l32.9-59.2c0-.08.08-.13.2-.13l.13,0a.37.37,0,0,1,.25.32l-.7,58.39a.6.6,0,0,0,.42.58.57.57,0,0,0,.18,0,.58.58,0,0,0,.49-.26l34.38-50.06-.87,50.31a.6.6,0,0,0,.36.56.69.69,0,0,0,.24.05.61.61,0,0,0,.42-.17l32-31.6a1.4,1.4,0,0,1,1-.37,1.21,1.21,0,0,1,.48.09,1.15,1.15,0,0,1,.74,1.18L197,68.4h-.3l.59-32.79a1,1,0,0,0-.25-.64.59.59,0,0,0-.55-.37.85.85,0,0,0-.2,0,.79.79,0,0,0-.67.35L162.13,68,163,18.51a.61.61,0,0,0-.42-.58.57.57,0,0,0-.18,0,.58.58,0,0,0-.49.26l-34.29,50,.68-59a.6.6,0,0,0-.45-.59l-.15,0a.58.58,0,0,0-.52.31L93.64,69.12l1-63.71a.7.7,0,0,0-.7-.71.63.63,0,0,0-.68.52L58.86,69.3Z"/></g></g></svg>