<?xml version="1.0" encoding="utf-8"?>
<!-- Generator: Adobe Illustrator 25.3.1, SVG Export Plug-In . SVG Version: 6.00 Build 0)  -->
<svg version="1.1" id="Layer_1" xmlns="http://www.w3.org/2000/svg" xmlns:xlink="http://www.w3.org/1999/xlink" x="0px" y="0px"
	 viewBox="0 0 550 550" style="enable-background:new 0 0 550 550;" xml:space="preserve">
<style type="text/css">
	.st0{fill:#00923F;}
	.st1{fill:#FF7300;}
</style>
<path class="st0" d="M55.7,242c-0.4,2.8,1.7,5.3,4.5,5.3h30.4c2.2,0,4-1.6,4.4-3.7c14.1-71.9,71.6-128.8,144.3-142.9
	c2.1-0.4,3.7-2.2,3.7-4.4V66c0-2.8-2.5-5-5.3-4.5C144.5,76.9,71.2,149.7,55.7,242z"/>
<path class="st0" d="M458.5,304.1c-2.2,0-4.1,1.6-4.4,3.8c-12.8,74.6-71.9,133.8-147,147.6c-2.2,0.4-3.7,2.2-3.7,4.4v30.3
	c0,2.8,2.5,5,5.2,4.5c95.8-14.9,171-90.2,184.9-185.4c0.4-2.7-1.8-5.2-4.6-5.2H458.5z"/>
<path class="st1" d="M388.3,304.1c-2.1,0-3.8,1.4-4.3,3.4c-10.3,37.4-39.8,67.2-77.3,78.4c-1.9,0.6-3.2,2.3-3.2,4.3v30.4
	c0,2.9,2.7,5.1,5.5,4.5c57.4-13.3,102-58.2,114.3-115.5c0.6-2.8-1.6-5.5-4.4-5.5L388.3,304.1L388.3,304.1z"/>
<path class="st0" d="M273.9,524.7L273.9,524.7L273.9,524.7c5.1,0,9.8-2,13.5-5.5c3.6-3.6,5.6-8.4,5.6-13.4v-149
	c29.9-7.1,53.3-30.3,60.5-59.9l152.1-0.2c10.5,0,19.1-8.6,19.1-19c0-5.1-2-9.9-5.7-13.5c-3.6-3.6-8.4-5.5-13.5-5.5l-152.1,0.3
	c-7.2-29.6-30.6-52.8-60.5-59.8V43.6c0-10.5-8.5-18.9-19.1-18.9c-10.5,0.1-19,8.6-19,19v155.5c-29.9,7.1-53.3,30.4-60.4,59.9
	l-150.7,0.3c-10.5,0-19,8.5-19,19c0,5.1,2,9.8,5.6,13.4c3.6,3.6,8.3,5.5,13.4,5.5l150.7-0.2c7.2,29.6,30.5,52.7,60.4,59.8v149
	C254.8,516.2,263.4,524.7,273.9,524.7z M216.1,279c0-32.5,26.2-58.9,58.6-58.9c32.3,0,58.6,26.3,58.6,58.9s-26.2,58.9-58.6,58.9
	C242.4,337.8,216.1,311.5,216.1,279z"/>
<path class="st0" d="M308.7,61c-2.7-0.4-5.2,1.8-5.2,4.5v30.3c0,2.2,1.6,4,3.7,4.4c74,13.4,132.6,71,146.4,144.2
	c0.4,2.1,2.2,3.7,4.4,3.7h30.6c2.8,0,5-2.5,4.5-5.3C478.2,149.1,403.5,75.5,308.7,61z"/>
<path class="st1" d="M303.4,135.1v30.5c0,2,1.3,3.7,3.3,4.3c36.4,10.8,65.2,39.1,76.3,75c0.6,1.9,2.3,3.2,4.3,3.2h30.8
	c2.9,0,5.1-2.7,4.4-5.6c-13.3-55.7-57.3-99-113.6-111.9C306.2,130,303.4,132.2,303.4,135.1z"/>
<path class="st1" d="M164.9,310.6c-0.6-1.9-2.3-3.2-4.3-3.2H130c-2.9,0-5.1,2.7-4.4,5.5c13.2,56.1,57.6,99.7,114.4,112.4
	c2.8,0.6,5.5-1.6,5.5-4.5v-30.4c0-2-1.3-3.7-3.3-4.3C205.3,375.5,176.1,346.8,164.9,310.6z"/>
<path class="st0" d="M94.8,311c-0.4-2.1-2.2-3.7-4.4-3.7H59.9c-2.8,0-5,2.5-4.5,5.3c14.9,93.9,89.8,167.9,184.8,182.2
	c2.7,0.4,5.2-1.8,5.2-4.5V460c0-2.2-1.6-4-3.7-4.4C167.4,442.3,108.5,384.4,94.8,311z"/>
<path class="st1" d="M237.4,131.2c-55.1,13.4-98.1,56.1-111.5,110.6c-0.7,2.8,1.5,5.6,4.4,5.6h30.8c1.9,0,3.7-1.3,4.3-3.2
	c11.2-34.9,39.2-62.6,74.4-73.6c1.9-0.6,3.2-2.3,3.2-4.3v-30.6C243,132.7,240.3,130.5,237.4,131.2z"/>
</svg>
