<?xml version="1.0" encoding="utf-8"?>
<!-- Generator: Adobe Illustrator 25.3.1, SVG Export Plug-In . SVG Version: 6.00 Build 0)  -->
<svg version="1.1" id="Layer_1" xmlns="http://www.w3.org/2000/svg" xmlns:xlink="http://www.w3.org/1999/xlink" x="0px" y="0px"
	 viewBox="0 0 550 550" style="enable-background:new 0 0 550 550;" xml:space="preserve">
<style type="text/css">
	.st0{fill:#00923F;}
	.st1{fill:#FF7300;}
</style>
<g>
	<path class="st0" d="M99.6,458.3C98.6,458.3,98.6,458.3,99.6,458.3c-5.1,1-8.1,5-8.1,9s5.1,7,9.1,7c2,0,4-1,5.1-3c1-2,2-4,2-6
		C106.6,461.3,103.6,458.3,99.6,458.3z"/>
	<path class="st1" d="M97.5,377.7C97.5,376.7,96.6,376.7,97.5,377.7c-1-2-2-3-3-4c-1-1-1-2-2-2c-1-1-1-1-2-2c-1-1-2-2-3-3
		c-5.1-4-9-7-13.1-7c-3,0-6,1-9.1,3c-2,1-4,2-6,3c-10.1,5-32.2,14.9-35.2,20.9c-2,5,0,11.9,2,20.9c1,2,1,5,2,7
		c5.1,18.9,5.1,41.8,5.1,63.7c0,22.9,0,44.8,6,61.7c1,3,2,3,2,3l0,0c1,0,5.1-2,8.1-4c6-4,19.1-9.9,34.2-15.9
		c15.1-7,31.2-14.9,45.3-20.9c20.1-11,23.2-13.9,24.1-14.9c2-5,1-11.9-3-21.9C140.9,444.3,114.7,400.6,97.5,377.7z M111.7,476.2
		c-3,3-7,6-11.1,6c-1,0-1,0-2,0c-8.1,0-15.1-6-16.1-13.9c-1-9,5.1-16.9,14.1-17.9c1,0,1,0,2,0c8.1,0,15.1,6,16.1,13.9
		C115.7,468.2,114.7,472.2,111.7,476.2z"/>
	<path class="st0" d="M490.1,335.9c-3,0-7,0-11.1,1c-31.2,4-84.6,26.8-108.7,45.8c-1,2-3,5-5.1,7c-7,6-19.1,9-33.2,9
		c-23.2,0-51.3-7-74.5-12.9c-2,0-3-1-4-1c-2-1-4-3-3-5c1-2,3-4,5.1-3c1,0,3,1,5.1,1c54.4,13.9,88.6,15.9,99.7,6c1-1,3-3,3-5l0,0l0,0
		c0-1,0-1,1-2l0,0c1-3,1-5,0-9c-5.1-31.8-87.6-48.8-144.9-48.8c-11.1,0-20.1,1-26.2,2c-20.1,4-51.3,17.9-95.6,42.8l0,0c0,1,1,1,2,2
		l0,0c1,1,1,1,2,2l0,0c1,1,1,1,2,2l0,0c1,1,1,1,2,2l0,0c2,2,4,5,6,7.9l0,0c1,1,1,2,2,3l0,0c2,3,4,6,6,9l0,0c1,1,1,2,2,3l0,0
		c2,3,4,7,6,9.9l0,0c1,1,1,2,2,3l0,0c1,1,1,2,2,3l0,0c1,2,3,4,4,7l0,0c1,1,1,2,2,3l0,0c1,1,1,2,2,3l0,0c1,2,2,4,4,6l0,0c1,1,1,2,2,3
		l0,0c1,1,1,2,2,3l0,0c1,1,1,2,1,3l0,0c1,2,2,4,3,5l0,0c0,1,1,2,1,2l0,0c0,1,1,2,1,2l0,0c1,2,1,3,2,4l0,0
		c22.2-7.9,41.3-11.9,58.4-11.9c20.2,0,36.2,5,52.4,9.9c17.1,5,34.2,11,56.3,11c4,0,8.1,0,12.1,0c20.2-1,65.4-20.9,108.7-46.8
		c45.3-26.8,74.5-53.8,74.5-65.7C515.3,338.9,502.2,335.9,490.1,335.9z"/>
	<path class="st0" d="M97.5,330.9c1,0,1,0,2-1c1,0,73.5-40.8,105.7-48.8c32.2-7.9,152,32.8,153,33.8l0,0l0,0l0,0l0,0l0,0l0,0l0,0
		l0,0l0,0l0,0l0,0l0,0l0,0l0,0l0,0l0,0l0,0l0,0l0,0l0,0l0,0l0,0v-50.7c0,0,1,1,2,1c16.1,3,31.2,5,45.3,5c35.2,0,63.4-9.9,83.5-29.9
		c32.2-30.8,41.3-74.6,29.2-130.3c0-2-2-3-3-3c-16.1-3-31.2-5-45.3-5c-35.2,0-63.4,9.9-83.5,29.9c-11.1,11-18.1,23.9-23.2,38.8V86.1
		c6-27.9,1-50.7-13.1-64.7C340,11.5,326,6.5,306.8,6.5c-7,0-15.1,1-23.2,2c-2,0-3,2-3,3c-6,28.8-1,50.7,13.1,64.7
		c10.1,9.9,24.1,14.9,42.3,14.9l0,0c6,0,12.1-1,18.1-2v102.5c-3-7.9-8.1-13.9-14.1-19.9c-14.1-13.9-33.2-20.9-58.4-20.9
		c-10.1,0-20.2,1-31.2,3c-2,0-3,2-3,3c-8.1,38.8-2,69.6,17.1,88.5c14.1,13.9,33.2,20.9,58.4,20.9l0,0c9.1,0,20.1-1,31.2-3v41.8
		c-24.1-7.9-121.8-39.8-152-31.8c-33.2,7.9-104.7,47.7-107.7,49.8c-2,1-3,4-2,6C94.5,330.9,95.6,330.9,97.5,330.9z M368.3,249.4
		l55.4-56.7l-4-54.7c0-2,1-4,4-4c2,0,4,1,4,4l4,47.7l31.2-32.8c2-2,4-2,6,0c2,2,2,4,0,6l-67.4,69.6l49.3-7.9c2,0,4,1,5.1,3
		c0,2-1,4-3,5l-60.4,9l-17.1,17.9c-2,0-3-1-5.1-1C369.4,252.3,368.3,251.4,368.3,249.4z M391.4,257.3c-1,0-2,0-3,0
		C390.5,257.3,390.5,257.3,391.4,257.3z M387.4,257.3c-1,0-2,0-3,0C385.4,257.3,386.5,257.3,387.4,257.3z M382.4,256.3c-1,0-2,0-3,0
		C380.4,256.3,381.4,256.3,382.4,256.3z M377.4,255.3c-1,0-2,0-3-1C375.4,255.3,376.4,255.3,377.4,255.3z M394.5,257.3c1,0,2,0,2,0
		C395.5,258.3,394.5,258.3,394.5,257.3z M399.5,258.3c1,0,1,0,2,0C400.5,258.3,399.5,258.3,399.5,258.3z M404.6,258.3c1,0,1,0,2,0
		C405.5,258.3,404.6,258.3,404.6,258.3z M511.2,114c10.1,51.7,2,92.5-23.2,117.4c-18.1,17.9-44.3,26.8-77.5,26.8l0,0
		c33.2,0,59.4-9,77.5-26.8C513.3,206.6,521.3,165.8,511.2,114c-14.1-2-28.2-4-41.3-4l0,0C483.1,110,497.1,112,511.2,114z
		 M388.4,141.9L388.4,141.9L388.4,141.9z M365.3,212.5c0,1,0,1,0,2C365.3,213.5,365.3,212.5,365.3,212.5z M386.5,144.9
		C386.5,144.9,385.4,144.9,386.5,144.9C385.4,144.9,386.5,144.9,386.5,144.9z M384.4,146.9C384.4,147.8,383.4,147.8,384.4,146.9
		C383.4,147.8,384.4,147.8,384.4,146.9z M382.4,149.8C382.4,149.8,381.4,150.8,382.4,149.8C381.4,150.8,382.4,149.8,382.4,149.8z
		 M380.4,152.8L380.4,152.8L380.4,152.8z M378.4,155.8L378.4,155.8L378.4,155.8z M377.4,158.8c0,0,0,1-1,1
		C376.4,158.8,377.4,158.8,377.4,158.8z M375.4,161.8v1C375.4,161.8,375.4,161.8,375.4,161.8z M374.4,164.7v1V164.7z M373.3,167.8v1
		C372.4,168.8,373.3,167.8,373.3,167.8z M371.3,170.8v1C371.3,171.7,371.3,171.7,371.3,170.8z M370.3,174.7v1V174.7z M369.4,177.7v1
		C369.4,178.7,369.4,178.7,369.4,177.7z M369.4,181.7v1C368.3,182.7,368.3,181.7,369.4,181.7z M368.3,184.7v1
		C368.3,185.6,368.3,185.6,368.3,184.7z M367.3,188.6v1V188.6z M366.3,192.6v1V192.6z M366.3,196.6c0,1,0,1,0,2
		C366.3,197.6,366.3,196.6,366.3,196.6z M366.3,200.6c0,1,0,1,0,2C365.3,201.6,366.3,200.6,366.3,200.6z M365.3,204.6c0,1,0,1,0,2
		C365.3,205.6,365.3,204.6,365.3,204.6z M365.3,208.6c0,1,0,1,0,2C365.3,209.5,365.3,208.6,365.3,208.6z M366.3,235.4L366.3,235.4
		L366.3,235.4z M366.3,231.4v-1C366.3,230.4,366.3,230.4,366.3,231.4z M365.3,226.4v-1V226.4z M365.3,222.5v-1
		C365.3,221.5,365.3,221.5,365.3,222.5z M365.3,218.5c0-1,0-1,0-2C365.3,217.5,365.3,217.5,365.3,218.5z M336.1,178.7c1,1,2,2,3,3
		C337.1,180.7,337.1,179.7,336.1,178.7c-12.1-11.9-30.2-17.9-52.4-17.9l0,0C305.9,160.8,323,166.7,336.1,178.7z M343.2,188.6
		c-1-1-1-2-2-3C342.2,185.6,343.2,187.7,343.2,188.6z M341.1,184.7c-1-1-2-2-3-3C339.1,182.7,340.2,183.7,341.1,184.7z M324,259.3
		c2,0,3,0,5.1,0C328.1,259.3,326,259.3,324,259.3L324,259.3z M351.2,257.3c-5.1,1-11.1,2-16.1,2c4,0,7-1,11.1-1l-42.3-43.8l-24.1,9
		h-1c-2,0-3-1-4-3s0-4,2-5l21.1-7.9l-15.1-14.9c-2-2-2-4,0-6c2-2,4-2,6,0l39.2,40.8l2-28.8c0-2,2-4,4-4c2,0,4,2,4,4l-2,35.8
		l16.1,15.9c3-17.9,2-33.8-2-46.8C355.2,219.5,355.2,236.4,351.2,257.3z M330.1,259.3c2,0,3,0,5.1,0
		C333.1,259.3,332.1,259.3,330.1,259.3z M343.2,188.6c1,1,1,2,2,3C345.2,190.6,344.1,189.7,343.2,188.6z M346.2,192.6c1,1,1,2,2,4
		C347.2,194.6,346.2,193.6,346.2,192.6z M347.2,196.6c1,1,1,3,2,4C349.2,198.6,348.2,197.6,347.2,196.6z M349.2,200.6c0,1,1,3,1,4
		C350.2,203.6,350.2,201.6,349.2,200.6z M337.1,83.2L337.1,83.2L337.1,83.2c6,0,12.1-1,18.1-2c4-23.9,1-42.8-11.1-54.7
		c-9.1-9-21.1-12.9-37.3-12.9l0,0c16.1,0,28.2,4,37.3,12.9c12.1,11.9,15.1,30.9,11.1,54.7C349.2,83.2,343.2,83.2,337.1,83.2z"/>
</g>
</svg>
