<svg xmlns="http://www.w3.org/2000/svg" version="1.1" xmlns:xlink="http://www.w3.org/1999/xlink" width="512" height="512" x="0" y="0" viewBox="0 0 512 512" style="enable-background:new 0 0 512 512" xml:space="preserve" class=""><g><path fill="#0bc166" d="M269.952 511.956C97.929 515.126 5.412 338.69 45.556 182.7 83.784 34.158 264.242-48.175 392.817 30.224c163.407 99.637 31.512 221.09-34.933 136.175-21.526-52.554-124.252-54.122-166.596-2.997-41.496 50.101-40.867 151.556 3.694 198.188 30.072 31.469 112.142 34.767 142.281 9.704 9.322-7.654 14.514-18.442 15.874-32.979 3.177-33.967 33.289-58.918 67.251-55.751 96.025 16.037 48.897 145.801-4.734 184.206-36.512 29.984-85.544 44.077-145.702 45.186z" opacity="1" data-original="#0d8ba0" class=""></path><g fill="#02718c"><path d="M399.409 193.819c.23-4.2.34-8.43.34-12.68 0-71.84-32.58-136.079-83.78-178.729 26.59 3.99 52.64 13.05 76.85 27.81 133.03 81.12 70.35 176.689 6.59 163.599zM415.659 466.768c-36.52 29.99-85.55 44.08-145.709 45.19-92.549 1.71-162.079-48.58-200.339-119.689 29.68 13.74 62.74 21.41 97.6 21.41 38.39 0 74.6-9.3 106.51-25.78 25.41.32 49.84-5.21 63.54-16.6 9.33-7.66 14.52-18.45 15.88-32.98 3.17-33.97 33.29-58.92 67.25-55.75 96.018 16.03 48.898 145.799-4.732 184.199z" fill="#28e088" opacity="1" data-original="#02718c" class=""></path></g><path fill="#79ff79" d="M415.659 466.768c-36.52 29.99-85.55 44.08-145.709 45.19-21.08.39-40.97-1.92-59.56-6.57 2.07.06 4.15.09 6.23.09 120.739 0 218.619-97.88 218.619-218.619v-.54c75.85 26.57 31.04 144.209-19.58 180.449z" opacity="1" data-original="#015382" class=""></path><path fill="#04a550" d="M45.561 182.699c-11.006 42.759-12.036 87.053-4.196 128.763 3.603 19.169 24.557 29.595 42.05 20.967l.828-.407c11.967-5.862 18.389-19.015 15.962-32.118-6.155-33.22-5.228-68.49 3.457-102.255 9.95-38.63 34.11-73.86 68.03-99.19 25.375-18.949 54.55-31.391 84.257-36.207 12.604-2.043 22.371-12.144 24.241-24.775l.141-.954c2.914-19.682-14.087-36.698-33.728-33.522C155.055 17.807 70.362 86.312 45.561 182.699z" opacity="1" data-original="#12adb5" class=""></path><path fill="#01893e" d="M148.672 80.831c-11.041-14.182-32.145-15.408-44.565-2.416-27.385 28.646-48.189 64.032-58.546 104.284a295.044 295.044 0 0 0-8.709 55.063c-1.069 17.043 12.398 31.48 29.475 31.48h.925c15.677 0 28.492-12.257 29.488-27.902.933-14.653 3.221-29.308 6.921-43.691 7.356-28.56 22.481-55.261 43.574-77.477 10.093-10.631 11.027-26.993 2.036-38.571l-.599-.77z" opacity="1" data-original="#3cd3d3" class=""></path><circle cx="255.947" cy="62.252" r="30" fill="#01893e" opacity="1" data-original="#3cd3d3" class=""></circle><circle cx="167.21" cy="413.678" r="30" fill="#04a550" opacity="1" data-original="#12adb5" class=""></circle></g></svg>