<svg xmlns="http://www.w3.org/2000/svg" version="1.1" xmlns:xlink="http://www.w3.org/1999/xlink" width="512" height="512" x="0" y="0" viewBox="0 0 512 512" style="enable-background:new 0 0 512 512" xml:space="preserve" class=""><g><path fill="#0bc166" d="M377.801 386.204H215.097c-8.529 0-15.54-6.715-15.903-15.237-.354-8.316-.684-17.404-.96-27.157-.257-9.093 7.136-16.567 16.231-16.382 68.604 1.397 125.902 6.17 128.213-64.015-2.297-69.475-63.311-61.437-126.136-60.06-9.293.204-16.757-7.583-16.215-16.862a1479.555 1479.555 0 0 1 2.679-37.715c1.178-13.991 12.837-24.769 26.877-24.769h128.348C439.652 122.711 439.768 1.339 358.229 0H201.03C139.904 0 88.933 45.793 82.467 106.518c-11.96 112.337-9.946 220.192-6.15 290.888 9.097 151.897 201.954 106.673 301.488 112.802 81.054-.453 81.124-123.585-.004-124.004z" opacity="1" data-original="#7cbaf7" class=""></path><g fill="#48acff"><path d="M358.23 124.01h-6.22c2.89-17.57 4.39-35.61 4.39-54 0-24.02-2.56-47.44-7.44-70.01h9.27c81.54 1.34 81.42 122.71 0 124.01zM342.68 263.41c-2.1 63.87-49.73 65.67-109.98 64.42 37.45-30.07 68.2-68.13 89.66-111.59 12.03 9.01 19.54 23.65 20.32 47.17zM377.81 510.21c-99.54-6.13-292.4 39.09-301.49-112.8-.01-.23-.02-.46-.04-.7 44.23-6.77 85.57-22.3 122.2-44.78.22 6.72.46 13.08.71 19.04.37 8.52 7.38 15.23 15.91 15.23h162.7c81.129.42 81.06 123.56.01 124.01z" fill="#28e088" opacity="1" data-original="#48acff" class=""></path></g><path fill="#79ff79" d="M377.81 510.21c-73.75-4.54-198.72 19.1-262.23-30.11 28.85 18.26 63.05 28.84 99.72 28.84 80.21 0 148.6-50.6 175-121.62 68.379 12.31 64.16 122.46-12.49 122.89z" opacity="1" data-original="#229bff" class=""></path><path fill="#04a550" d="M142.13 112.87c2.374-22.291 16.844-40.518 36.505-48.502 11.159-4.531 18.267-15.605 18.267-27.649v-.007c0-21.274-21.568-35.878-41.253-27.813-39.423 16.152-68.413 52.818-73.179 97.62-7.604 71.427-9.56 141.032-8.999 200.432.155 16.463 13.534 29.726 29.998 29.726 16.679 0 30.152-13.598 29.994-30.277-.545-57.454 1.336-124.691 8.667-193.53z" opacity="1" data-original="#a9cffc" class=""></path><path fill="#01893e" d="M145.835 58.675c-12.883-17.279-39.319-15.429-49.607 3.51-7.26 13.363-12.056 28.329-13.758 44.335-2.231 20.953-3.974 41.748-5.311 62.176-1.115 17.032 12.359 31.473 29.427 31.473h1.014c15.522 0 28.408-12.025 29.422-27.514 1.287-19.655 2.964-39.651 5.107-59.785a59.047 59.047 0 0 1 6.532-21.437c5.408-10.208 4.753-22.564-2.14-31.835l-.686-.923z" opacity="1" data-original="#cbe1ff" class=""></path><circle cx="135.141" cy="272.147" r="30" fill="#01893e" opacity="1" data-original="#cbe1ff" class=""></circle><circle cx="257.451" cy="53.078" r="30" fill="#04a550" opacity="1" data-original="#a9cffc" class=""></circle></g></svg>