<svg xmlns="http://www.w3.org/2000/svg" version="1.1" xmlns:xlink="http://www.w3.org/1999/xlink" width="512" height="512" x="0" y="0" viewBox="0 0 512 512" style="enable-background:new 0 0 512 512" xml:space="preserve" class=""><g><path fill="#0cc166" d="M442.46 446.142c.074-133.512 6.859-296.309-9.56-382.558-6.923-36.368-19.573-58.828-38.379-61.887-81.075-13.191-78.895 52.117-81.753 141.217-.461 14.364-11.63 26.124-25.962 27.19a1082.438 1082.438 0 0 0-63.233 6.57c-17.231 2.308-32.414-11.402-31.854-28.777 2.837-88.028 14.26-139.533-52.026-143.447-33.991-2.007-63.242 12.789-66.626 56.235-.491 6.304-12.865 157.024 3.345 393.874 2.227 32.536 29.309 57.443 61.44 57.439 35.53.141 64.141-30.389 61.564-65.858a3462.992 3462.992 0 0 1-5.968-115.138c-.497-14.182 9.66-26.494 23.673-28.735 18.415-2.946 40.347-5.859 65.047-8.064 16.105-1.438 30.097 10.977 30.605 27.138 1.275 40.524 3.388 85.088 6.682 133.217 7.015 80.899 127.197 72.38 123.005-8.416z" opacity="1" data-original="#0cc166" class=""></path><path fill="#04a550" d="M442.46 446.14c4.19 80.8-115.99 89.32-123 8.42a3638.22 3638.22 0 0 1-5.33-96.38c43.84-44.49 70.89-105.58 70.89-172.97 0-60.27-21.64-115.5-57.57-158.32C338.23 5.82 357.87-4.26 394.52 1.7c18.81 3.06 31.46 25.52 38.38 61.88 16.42 86.25 9.63 249.05 9.56 382.56zM137.85 512c-32.13 0-59.21-24.9-61.44-57.44-.73-10.62-1.4-21.07-2.01-31.34 20.46 5.5 41.98 8.44 64.18 8.44 20.49 0 40.39-2.5 59.42-7.22.45 7.15.92 14.38 1.42 21.7 2.57 35.47-26.04 66-61.57 65.86z" opacity="1" data-original="#04a550"></path><path fill="#00893e" d="M442.46 446.14c3.67 70.79-88.13 86.1-115.64 34.4C393.61 445.17 440 376.41 443.75 296.5c-.38 50.4-1.27 101.89-1.29 149.64z" opacity="1" data-original="#00893e"></path><path fill="#29e088" d="M128.237 245.551c-.548-63.671.976-112.567 2.436-143.434.81-17.114-12.842-31.426-29.975-31.426-16.019 0-29.211 12.574-29.975 28.574-1.508 31.569-3.081 81.559-2.511 146.786.144 16.476 13.537 29.767 30.014 29.767 16.672 0 30.155-13.595 30.011-30.267z" opacity="1" data-original="#29e088" class=""></path><path fill="#79ff79" d="M98.838 124.329c-16.309 0-29.629 13.016-30.008 29.321a2747.21 2747.21 0 0 0-.66 43.833c-.12 16.67 13.344 30.256 30.015 30.256h.001c16.501 0 29.895-13.322 30.015-29.822.113-15.538.343-29.852.644-42.873.389-16.849-13.154-30.715-30.007-30.715z" opacity="1" data-original="#79ff79" class=""></path><path fill="#29e088" d="M265.062 269.305c0-18.141-15.985-32.162-33.964-29.739a960.574 960.574 0 0 0-23.458 3.454c-43.83 7.01-75.71 45.74-74.16 90.08a3334.48 3334.48 0 0 0 1.258 31.464c.715 16.036 13.92 28.677 29.972 28.677 17.085 0 30.72-14.258 29.965-31.326A3361.624 3361.624 0 0 1 193.45 331c-.5-14.18 9.66-26.49 23.67-28.73a909.733 909.733 0 0 1 21.993-3.243c14.866-2.009 25.949-14.721 25.949-29.722z" opacity="1" data-original="#29e088" class=""></path><circle cx="196" cy="245.818" r="30" fill="#79ff79" opacity="1" data-original="#79ff79" class=""></circle><circle cx="337.337" cy="255.579" r="30" fill="#29e088" opacity="1" data-original="#29e088" class=""></circle></g></svg>