<svg xmlns="http://www.w3.org/2000/svg" version="1.1" xmlns:xlink="http://www.w3.org/1999/xlink" width="512" height="512" x="0" y="0" viewBox="0 0 512 512" style="enable-background:new 0 0 512 512" xml:space="preserve" class=""><g><path fill="#0cc166" d="M229.865 511.976C-82.951 486.621-28.358-27.03 297.402 1.115c309.06 41.646 216.431 514.608-67.537 510.861zm50.533-387.695c-94.407-2.448-141.448 76.08-133.485 164.104 9.182 99.755 99.198 133.698 173.118 59.152 64.619-58.368 71.71-218.667-39.633-223.256z" opacity="1" data-original="#0cc166" class=""></path><path fill="#04a550" d="M229.86 511.978c-106.44-8.63-170.339-73.8-195.489-154.919 34.18 15.02 71.95 23.35 111.68 23.35 16.46 0 32.59-1.43 48.26-4.18 34.78 21.25 82.94 14.45 125.719-28.69 17.97-16.23 31.49-40.34 39.25-66.8 40.39-48.26 64.7-110.42 64.7-178.259 0-16.54-1.45-32.75-4.22-48.5 150.359 133.679 46.569 461.118-189.9 457.998z" opacity="1" data-original="#04a550" class=""></path><path fill="#00893e" d="M476.849 313.469c-31.96 107.26-120.49 200.179-246.989 198.509-76.4-6.19-130.879-41.52-164.849-90.96 44.51 25.58 96.11 40.2 151.129 40.2 110.73 0 207.619-59.24 260.709-147.749z" opacity="1" data-original="#00893e"></path><path fill="#29e088" d="M70.965 341.082c10.413-6.254 15.995-18.214 14.037-30.202-2.502-15.319-3.467-31.355-2.801-47.797 2.162-53.436 21.638-105.275 53.432-142.226 7.683-8.929 16.008-16.93 24.916-23.963 11.526-9.099 14.811-25.159 7.622-37.964l-.294-.524c-8.878-15.848-29.858-20.126-44.137-8.896C44.401 111.913 9.836 222.844 25.81 320.531c3.399 20.787 26.563 31.706 44.625 20.87l.53-.319z" opacity="1" data-original="#29e088"></path><path fill="#79ff79" d="M67.509 112.416c-20.698 32.716-34.499 70.059-41.064 108.493-2.604 15.247 7.138 29.905 22.151 33.626l.592.147c16.758 4.148 33.502-6.797 36.427-23.811 5.371-31.237 16.572-60.938 32.533-86.263 7.309-11.598 5.837-26.708-3.727-36.53l-.43-.442c-13.422-13.807-36.186-11.493-46.482 4.78z" opacity="1" data-original="#79ff79" class=""></path><path fill="#29e088" d="M280.398 124.281c29.969 1.235 51.355 13.752 65.351 32.525 7.344 9.851 19.906 14.289 31.679 10.774l.579-.173c20.014-5.959 28.091-30.034 15.576-46.75-7.419-9.909-15.961-18.708-25.469-26.167-23.452-18.397-52.929-28.825-85.245-30.157l-.457-.019-.457-.012a223.3 223.3 0 0 0-5.833-.076c-10.857 0-21.419.784-31.647 2.334-18.701 2.834-29.9 22.365-23.109 40.018l.216.561c5.044 13.113 18.553 20.778 32.447 18.692 8.329-1.249 17.12-1.789 26.369-1.55z" opacity="1" data-original="#29e088"></path><circle cx="126.983" cy="380.408" r="30" fill="#29e088" opacity="1" data-original="#29e088"></circle><circle cx="368.113" cy="94.49" r="30" fill="#79ff79" opacity="1" data-original="#79ff79" class=""></circle></g></svg>