<svg xmlns="http://www.w3.org/2000/svg" version="1.1" xmlns:xlink="http://www.w3.org/1999/xlink" width="512" height="512" x="0" y="0" viewBox="0 0 512 512" style="enable-background:new 0 0 512 512" xml:space="preserve" class=""><g><path fill="#0cc166" d="M137.058 512c-31.382 0-58.346-23.68-61.745-55.586-4.68-17.083-13.542-267.452 2.053-326.342 13.358-50.443 31.543-99.675 77.803-117.566 71.151-27.517 161.486-7.534 221.906 39.49 91.131 70.927 87.016 189.894-3.583 253.465-38.854 27.263-107.852 45.41-161.61 50.786-10.918 1.092-19.018 10.665-18.294 21.613 5.18 78.265 21.039 120.823-56.53 134.14zm67.281-377.79c-4.186 12.83-9.712 37.541-12.4 82.607-.52 8.717 6.989 15.798 15.657 14.734 51.166-6.282 155.54-30.423 92.279-82.079-20.945-16.587-54.265-28.734-83.964-24.828-5.383.708-9.888 4.405-11.572 9.566z" opacity="1" data-original="#0cc166"></path><path fill="#04a550" d="M373.49 305.46c-38.85 27.27-107.85 45.41-161.61 50.79-10.92 1.09-19.02 10.66-18.29 21.61 5.18 78.26 21.04 120.82-56.53 134.14-31.38 0-58.35-23.68-61.75-55.59-2.16-7.88-5.21-65.47-6.34-130.99 24.3 8.56 50.44 13.22 77.67 13.22 129.01 0 233.6-104.59 233.6-233.6 0-19.2-2.32-37.86-6.68-55.71 1.19.88 2.35 1.77 3.51 2.67 91.14 70.92 87.02 189.89-3.58 253.46z" opacity="1" data-original="#04a550"></path><path fill="#00893e" d="M137.06 512c-31.38 0-58.35-23.68-61.75-55.59-1.09-3.98-2.41-20.63-3.59-44.57 28.52 11.72 59.75 18.18 92.49 18.18 11.36 0 22.54-.78 33.49-2.29 3.33 46.98-1.52 74.12-60.64 84.27z" opacity="1" data-original="#00893e"></path><path fill="#29e088" d="M104.999 131.838c15.754 6.807 34.016-1.196 39.72-17.382 9.597-27.232 19.519-41.127 32.093-45.989C191.338 62.849 207.72 60 225.502 60c20.512 0 41.729 3.834 61.797 10.866 14.044 4.92 29.58-1.129 36.265-14.424l.5-.993c7.99-15.864.246-35.129-16.506-41.034-49.7-17.517-105.253-20.139-152.389-1.909-35.201 13.614-54.144 45.377-67.075 82.011-5.192 14.711 2.042 30.862 16.349 37.08l.556.241z" opacity="1" data-original="#29e088"></path><path fill="#79ff79" d="M258.435 30.033c0-16.33-13.063-29.735-29.391-29.995-25.528-.406-50.717 3.512-73.875 12.469-13.023 5.037-23.819 12.558-32.909 21.892-13.544 13.906-10.8 36.745 5.673 47.014l.511.319c11.701 7.289 26.768 5.062 36.285-4.911 3.779-3.96 7.776-6.687 12.084-8.353C191.338 62.849 207.72 60 225.502 60c.878 0 1.758.007 2.639.021 16.68.268 30.294-13.306 30.294-29.988z" opacity="1" data-original="#79ff79"></path><path fill="#29e088" d="M274.092 217.083c-22.067 7.499-47.759 12.163-66.412 14.457-8.698 1.07-16.264-5.978-15.742-14.726.038-.645.078-1.286.117-1.923.993-15.956-10.844-29.818-26.757-31.357-17.062-1.651-32.114 11.159-33.167 28.269-.029.479-.059.96-.087 1.442-1.209 20.269 6.082 40.37 20.004 55.149 13.925 14.782 33.539 23.261 53.812 23.263h.006c3.008 0 6.05-.187 9.042-.554 11.398-1.399 45.792-9.528 77.328-19.544 18.544-5.889 25.758-28.27 14.229-43.942l-.363-.493c-7.327-9.977-20.288-14.024-32.01-10.041z" opacity="1" data-original="#29e088"></path><circle cx="363.777" cy="141.828" r="30" fill="#29e088" opacity="1" data-original="#29e088"></circle><circle cx="165.106" cy="274.472" r="30" fill="#79ff79" opacity="1" data-original="#79ff79"></circle></g></svg>